<svg width="24" height="24" viewBox="0 0 24 24" fill="none" xmlns="http://www.w3.org/2000/svg">
<path d="M6.99979 10.4994L4.99579 13.1714C4.7158 13.5446 4.57513 14.0041 4.59814 14.4701C4.62115 14.9362 4.80639 15.3795 5.12179 15.7234L8.90579 19.8514C9.28379 20.2644 9.81779 20.4994 10.3788 20.4994H14.9998C17.3998 20.4994 18.9998 18.9994 18.9998 16.4994V7.92837C18.9998 5.64237 15.9998 5.64237 15.9998 7.92837V8.49937" stroke="#ADADAD" stroke-width="1.5" stroke-linecap="round" stroke-linejoin="round"/>
<path d="M13 8.5V7.027M13 7.027V6.5M13 7.027C13 4.741 16 4.741 16 7.027V8.5" stroke="#ADADAD" stroke-width="1.5" stroke-linecap="round" stroke-linejoin="round"/>
<path d="M16 8.49966V7.02666C16 4.74066 13 4.74066 13 7.02666V8.49966V6.49966C13 4.21366 10 4.21366 10 6.49966V8.49966V6.38366C10 5.55466 9.328 4.99966 8.5 4.99966C8.10218 4.99966 7.72064 5.15769 7.43934 5.439C7.15804 5.7203 7 6.10183 7 6.49966V13.4997" stroke="#ADADAD" stroke-width="1.5" stroke-linecap="round" stroke-linejoin="round"/>
</svg>
