<svg width="21" height="24" viewBox="0 0 21 24" fill="none" xmlns="http://www.w3.org/2000/svg">
<g clip-path="url(#clip0_1719_96)">
<path d="M14.2888 1.14286H0.570339C-0.205583 1.10761 -0.171693 0.00628125 0.570339 0H14.2888C15.0346 0.01125 15.0613 1.10461 14.2888 1.14286ZM0.570104 5.7143C-0.205583 5.67905 -0.171693 4.57772 0.570104 4.57144H8.57462C9.32021 4.58269 9.34688 5.67605 8.57462 5.71425L0.570104 5.7143ZM6.2844 3.42858C5.50871 3.39333 5.5426 2.292 6.2844 2.28572H17.7174C18.4631 2.29697 18.4897 3.39033 17.7174 3.42853L6.2844 3.42858ZM15.4316 4.57139C16.1772 4.58273 16.204 5.67605 15.4317 5.7143H10.8558C10.0801 5.67905 10.114 4.57772 10.8558 4.57144L15.4316 4.57139ZM17.713 5.7143C16.9373 5.67905 16.9712 4.57772 17.713 4.57144H18.8603C19.6059 4.58269 19.6326 5.67605 18.8603 5.71425L17.713 5.7143ZM0.570104 8.00002C-0.205583 7.96477 -0.171693 6.86344 0.570104 6.85716H2.86042C3.60601 6.86841 3.63268 7.96177 2.86042 7.99997L0.570104 8.00002ZM14.2844 8.00002C13.5087 7.96477 13.5426 6.86344 14.2844 6.85716H20.0032C20.7488 6.86841 20.7754 7.96177 20.0032 7.99997L14.2844 8.00002ZM5.14154 8.00002C4.36585 7.96477 4.39974 6.86344 5.14154 6.85716H6.2889C7.03449 6.86841 7.06117 7.96177 6.2889 7.99997L5.14154 8.00002ZM0.570151 21.7143C-0.205536 21.679 -0.171646 20.5777 0.570151 20.5715H2.86042C3.60601 20.5827 3.63268 21.676 2.86042 21.7143H0.570151ZM5.14159 21.7143C4.3659 21.679 4.39979 20.5777 5.14159 20.5715H6.28895C7.03454 20.5827 7.06121 21.676 6.28895 21.7143H5.14159ZM14.2845 10.2857C13.5088 10.2505 13.5427 9.14916 14.2845 9.14288H20.0032C20.7488 9.15413 20.7755 10.2475 20.0032 10.2857H14.2845ZM0.570151 10.2857C-0.205536 10.2505 -0.171646 9.14916 0.570151 9.14288H6.2889C7.03454 9.15413 7.06121 10.2475 6.2889 10.2857H0.570151ZM0.570151 19.4286C-0.205536 19.3933 -0.171646 18.292 0.570151 18.2858H6.2889C7.03454 18.297 7.06121 19.3903 6.2889 19.4286H0.570151ZM0.570151 24C-0.205536 23.9648 -0.171646 22.8634 0.570151 22.8571H6.2889C7.03454 22.8684 7.06121 23.9618 6.2889 24H0.570151ZM0.570151 12.5714C-0.205536 12.5362 -0.171646 11.4349 0.570151 11.4286H1.71751C2.4631 11.4398 2.48978 12.5332 1.71751 12.5714H0.570151ZM3.99873 12.5714C3.22304 12.5362 3.25693 11.4349 3.99873 11.4286H7.43181C8.1774 11.4398 8.20407 12.5332 7.43181 12.5714H3.99873ZM9.71303 12.5714C8.93734 12.5362 8.97123 11.4349 9.71303 11.4286H18.8604C19.606 11.4398 19.6326 12.5332 18.8604 12.5714H9.71303ZM14.2845 14.8571C13.5088 14.8219 13.5427 13.7206 14.2845 13.7143H17.7175C18.4631 13.7256 18.4898 14.8189 17.7175 14.8571H14.2845ZM7.42731 14.8571C6.65162 14.8219 6.68551 13.7206 7.42731 13.7143H12.0032C12.7488 13.7256 12.7755 14.8189 12.0032 14.8571H7.42731ZM0.570151 14.8571C-0.205536 14.8219 -0.171646 13.7206 0.570151 13.7143H5.14609C5.89168 13.7256 5.91835 14.8189 5.14609 14.8571H0.570151ZM0.570151 17.1428C-0.205536 17.1076 -0.171646 16.0063 0.570151 16H1.71751C2.4631 16.0113 2.48978 17.1046 1.71751 17.1428H0.570151ZM3.99873 17.1428C3.22304 17.1076 3.25693 16.0063 3.99873 16H14.2889C15.0346 16.0113 15.0612 17.1046 14.2889 17.1428H3.99873ZM0.570151 3.42858C-0.205536 3.39333 -0.171646 2.292 0.570151 2.28572H4.00103C4.74953 2.29697 4.77629 3.39033 4.00103 3.42853L0.570151 3.42858Z" fill="#FAF8F3"/>
</g>
<defs>
<clipPath id="clip0_1719_96">
<rect width="20.58" height="24" fill="white"/>
</clipPath>
</defs>
</svg>
