<svg width="24" height="25" viewBox="0 0 24 25" fill="none" xmlns="http://www.w3.org/2000/svg">
<path d="M12 5.5L12.53 4.97C12.3894 4.82955 12.1988 4.75066 12 4.75066C11.8012 4.75066 11.6106 4.82955 11.47 4.97L12 5.5ZM12 13.5L11.47 14.03C11.6106 14.1705 11.8012 14.2493 12 14.2493C12.1988 14.2493 12.3894 14.1705 12.53 14.03L12 13.5ZM9.47 6.97C9.33752 7.11217 9.2654 7.30022 9.26882 7.49452C9.27225 7.68882 9.35097 7.87421 9.48838 8.01162C9.62579 8.14903 9.81118 8.22775 10.0055 8.23117C10.1998 8.2346 10.3878 8.16248 10.53 8.03L9.47 6.97ZM13.47 8.03C13.5387 8.10369 13.6215 8.16279 13.7135 8.20378C13.8055 8.24477 13.9048 8.26681 14.0055 8.26859C14.1062 8.27037 14.2062 8.25184 14.2996 8.21412C14.393 8.1764 14.4778 8.12026 14.549 8.04904C14.6203 7.97782 14.6764 7.89299 14.7141 7.7996C14.7518 7.70621 14.7704 7.60618 14.7686 7.50548C14.7668 7.40477 14.7448 7.30546 14.7038 7.21346C14.6628 7.12146 14.6037 7.03866 14.53 6.97L13.47 8.03ZM10.53 10.97C10.4613 10.8963 10.3785 10.8372 10.2865 10.7962C10.1945 10.7552 10.0952 10.7332 9.99452 10.7314C9.89382 10.7296 9.79379 10.7482 9.7004 10.7859C9.60701 10.8236 9.52218 10.8797 9.45096 10.951C9.37974 11.0222 9.3236 11.107 9.28588 11.2004C9.24816 11.2938 9.22963 11.3938 9.23141 11.4945C9.23318 11.5952 9.25523 11.6945 9.29622 11.7865C9.33721 11.8785 9.39631 11.9613 9.47 12.03L10.53 10.97ZM14.53 12.03C14.6037 11.9613 14.6628 11.8785 14.7038 11.7865C14.7448 11.6945 14.7668 11.5952 14.7686 11.4945C14.7704 11.3938 14.7518 11.2938 14.7141 11.2004C14.6764 11.107 14.6203 11.0222 14.549 10.951C14.4778 10.8797 14.393 10.8236 14.2996 10.7859C14.2062 10.7482 14.1062 10.7296 14.0055 10.7314C13.9048 10.7332 13.8055 10.7552 13.7135 10.7962C13.6215 10.8372 13.5387 10.8963 13.47 10.97L14.53 12.03ZM3.25 10.5V14.5H4.75V10.5H3.25ZM20.75 14.5V10.5H19.25V14.5H20.75ZM11.25 5.5V13.5H12.75V5.5H11.25ZM11.47 4.97L9.47 6.97L10.53 8.03L12.53 6.03L11.47 4.97ZM11.47 6.03L13.47 8.03L14.53 6.97L12.53 4.97L11.47 6.03ZM12.53 12.97L10.53 10.97L9.47 12.03L11.47 14.03L12.53 12.97ZM12.53 14.03L14.53 12.03L13.47 10.97L11.47 12.97L12.53 14.03ZM20.75 10.5C20.75 8.17936 19.8281 5.95376 18.1872 4.31282C16.5462 2.67187 14.3206 1.75 12 1.75V3.25C13.9228 3.25 15.7669 4.01384 17.1265 5.37348C18.4862 6.73311 19.25 8.57718 19.25 10.5H20.75ZM12 23.25C13.1491 23.25 14.2869 23.0237 15.3485 22.5839C16.4101 22.1442 17.3747 21.4997 18.1872 20.6872C18.9997 19.8747 19.6442 18.9101 20.0839 17.8485C20.5237 16.7869 20.75 15.6491 20.75 14.5H19.25C19.25 16.4228 18.4862 18.2669 17.1265 19.6265C15.7669 20.9862 13.9228 21.75 12 21.75V23.25ZM3.25 14.5C3.25 16.8206 4.17187 19.0462 5.81282 20.6872C7.45376 22.3281 9.67936 23.25 12 23.25V21.75C10.0772 21.75 8.23311 20.9862 6.87348 19.6265C5.51384 18.2669 4.75 16.4228 4.75 14.5H3.25ZM4.75 10.5C4.75 8.57718 5.51384 6.73311 6.87348 5.37348C8.23311 4.01384 10.0772 3.25 12 3.25V1.75C9.67936 1.75 7.45376 2.67187 5.81282 4.31282C4.17187 5.95376 3.25 8.17936 3.25 10.5H4.75Z" fill="#6C6B69"/>
</svg>
