<svg width="28" height="28" viewBox="0 0 28 28" fill="none" xmlns="http://www.w3.org/2000/svg">
<g clip-path="url(#clip0_733_352)">
<path fill-rule="evenodd" clip-rule="evenodd" d="M4.64844 0H23.3516C25.9188 0 28 2.13112 28 4.76V23.1952C28 25.8241 25.9188 27.9552 23.3516 27.9552H4.64844C2.08118 27.9552 0 25.8241 0 23.1952V4.76C0 2.13112 2.08118 0 4.64844 0ZM6.90943 16.7253H11.2484L12.2063 19.5774C12.2164 19.6193 12.241 19.6561 12.2755 19.6809C12.3101 19.7056 12.3522 19.7167 12.3941 19.712H14.8361C14.9487 19.7121 14.9863 19.648 14.9487 19.5197L10.6849 7.27417C10.6723 7.21004 10.6222 7.17797 10.5347 7.17797H7.54807C7.53021 7.17537 7.51201 7.17706 7.4949 7.18291C7.47779 7.18875 7.46225 7.19859 7.44949 7.21165C7.43674 7.22471 7.42713 7.24063 7.42142 7.25815C7.41571 7.27567 7.41406 7.29431 7.4166 7.31259C7.41583 7.57411 7.39068 7.83496 7.34146 8.09155C7.32888 8.14072 7.31641 8.18608 7.30394 8.22886L7.27879 8.31174L7.26632 8.35139L7.2288 8.46731L3.4721 19.5003C3.43433 19.6414 3.47815 19.712 3.60357 19.712L5.81863 19.7121C5.86704 19.7106 5.91362 19.6928 5.95118 19.6615C5.98875 19.6302 6.01523 19.5871 6.02655 19.5388L6.90943 16.7253ZM10.5535 14.353H7.58569C7.62609 14.2347 7.66667 14.114 7.70743 13.9908L7.78924 13.7414L7.87149 13.4856L7.95418 13.2233L8.0373 12.9547C8.06516 12.8641 8.09305 12.7724 8.12097 12.6796L8.27563 12.1661L8.58079 11.1581L8.70766 10.7411C8.8422 10.2901 8.95665 9.83305 9.05066 9.37137H9.06947L9.16419 9.72384L9.26788 10.1039L9.36391 10.4506C9.44984 10.7556 9.53953 11.0594 9.63297 11.3621L9.97116 12.4584L10.1529 13.0469L10.3438 13.6592L10.4432 13.9835L10.5111 14.21L10.5535 14.353ZM18.1608 15.6303H21.8611C21.9596 15.6308 22.0582 15.6348 22.1565 15.6421L22.3475 15.6565C22.4734 15.6659 22.5961 15.6735 22.7159 15.6705L22.8369 15.6671L22.8952 15.6651L23.007 15.6603L23.1126 15.6547L23.212 15.648L23.3051 15.6405C23.3351 15.6378 23.3641 15.635 23.392 15.6321L23.4946 15.6216L23.6114 15.6115L23.6614 15.6078L23.7256 15.6044L23.7771 15.6033C23.8188 15.6033 23.859 15.5876 23.8902 15.5592C23.9213 15.5309 23.9412 15.4918 23.9461 15.4494L23.9485 15.4293L23.9589 15.3344L23.9764 15.1469L23.9931 14.9493C24.0119 14.7186 24.0213 14.4621 24.0213 14.1799C24.0198 13.6836 23.9437 13.1906 23.7958 12.718C23.644 12.2277 23.4087 11.7686 23.1009 11.3621C22.7728 10.9468 22.3504 10.6201 21.8706 10.4106C21.2999 10.154 20.681 10.0292 20.0579 10.0452C19.3066 10.0452 18.6554 10.1441 18.1045 10.4196C17.5606 10.6897 17.0801 11.0768 16.6958 11.5545C16.3062 12.0379 16.0098 12.5927 15.8224 13.1893C15.6277 13.801 15.5294 14.4406 15.5312 15.0839C15.531 15.6731 15.6132 16.2593 15.7753 16.8246C15.939 17.3974 16.2137 17.9305 16.583 18.3922C16.9783 18.8822 17.4799 19.2708 18.048 19.527L18.1048 19.5531C18.6957 19.8178 19.4218 19.9501 20.2833 19.9501C20.8376 19.959 21.3914 19.9107 21.9362 19.806C22.3373 19.7388 22.7284 19.6195 23.1 19.4509C23.1341 19.4289 23.163 19.3993 23.1844 19.3643C23.2061 19.3197 23.2158 19.2699 23.2128 19.2201V17.3928C23.2127 17.2776 23.1813 17.2456 23.1187 17.2967C22.7837 17.4321 22.434 17.5254 22.0771 17.5747C21.6781 17.6572 21.2726 17.7028 20.8656 17.7109C20.3525 17.7222 19.8432 17.62 19.3723 17.4112C19.0248 17.2613 18.7278 17.0105 18.5177 16.6899C18.3277 16.3662 18.2061 16.0052 18.1608 15.6303ZM20.7188 13.878H18.1609C18.2001 13.5818 18.2857 13.2941 18.4145 13.0258C18.5593 12.7374 18.7829 12.4983 19.0581 12.3378C19.3332 12.1773 19.6481 12.1022 19.9642 12.1218C20.3001 12.1087 20.6308 12.2089 20.9057 12.407C21.1805 12.6051 21.3843 12.8901 21.4856 13.2182C21.5317 13.3611 21.557 13.5102 21.5606 13.6606V13.776C21.4776 13.827 21.3846 13.8585 21.2883 13.8684L21.1807 13.8722L21.0848 13.8744L20.9367 13.8766L20.7188 13.878Z" fill="#0E0E0E"/>
</g>
<defs>
<clipPath id="clip0_733_352">
<rect width="28" height="28" fill="white"/>
</clipPath>
</defs>
</svg>
