<svg width="28" height="28" viewBox="0 0 28 28" fill="none" xmlns="http://www.w3.org/2000/svg">
<g clip-path="url(#clip0_1952_161)">
<path d="M28 2.73467V25.2653C27.9997 25.9905 27.7115 26.6859 27.1987 27.1987C26.6859 27.7115 25.9905 27.9997 25.2653 28H2.73467C2.00948 27.9997 1.31409 27.7115 0.801307 27.1987C0.288524 26.6859 0.000309181 25.9905 0 25.2653L0 2.73467C0.000309181 2.00948 0.288524 1.31409 0.801307 0.801307C1.31409 0.288524 2.00948 0.000309181 2.73467 0L25.2653 0C25.9905 0.000309181 26.6859 0.288524 27.1987 0.801307C27.7115 1.31409 27.9997 2.00948 28 2.73467ZM12.4507 2.051L11.9723 2.87817L17.8302 13.02L24.1652 2.051H12.4507ZM15.0325 11.0367H12.9733C12.7953 11.0421 12.6216 11.0927 12.4686 11.1837C12.3155 11.2747 12.1881 11.4032 12.0983 11.557L11.0192 13.4295L11.011 13.4423C10.9248 13.598 10.8796 13.773 10.8796 13.951C10.8796 14.129 10.9248 14.304 11.011 14.4597L12.089 16.3252L12.1007 16.345C12.1935 16.4957 12.3229 16.6206 12.4769 16.7079C12.6309 16.7952 12.8045 16.8421 12.9815 16.8443C12.9838 16.8443 14.3558 16.8455 15.0407 16.842C15.2178 16.8389 15.3912 16.7905 15.5443 16.7015C15.6975 16.6125 15.8253 16.4857 15.9157 16.3333C16.2797 15.7049 16.6425 15.0761 17.0042 14.4468C17.0896 14.2925 17.1338 14.1188 17.1326 13.9425C17.1313 13.7662 17.0847 13.5931 16.9972 13.44L16.9878 13.4248L15.9133 11.564L15.9075 11.5547C15.8175 11.4013 15.6899 11.2733 15.5369 11.1827C15.3838 11.0921 15.2103 11.0418 15.0325 11.0367ZM2.75333 25.8767L11.3155 11.0542H7.25083L2.051 20.0573L2.05333 24.9363C2.0691 25.1432 2.14324 25.3414 2.26715 25.5079C2.39105 25.6743 2.55964 25.8022 2.75333 25.8767ZM16.5713 25.949L10.1792 14.882L3.78 25.949H16.5713ZM15.0803 10.122L11.4345 3.81033L7.78867 10.122H15.0803ZM25.949 17.7753H12.9267L17.647 25.949H24.8768C25.1628 25.9426 25.435 25.8247 25.6353 25.6205C25.8356 25.4163 25.9482 25.1419 25.949 24.8558V17.7753ZM25.2082 2.10933L16.6973 16.8443H25.949V3.14417C25.9485 2.91605 25.8768 2.69378 25.7441 2.50829C25.6113 2.32281 25.4239 2.18335 25.2082 2.10933Z" fill="#0E0E0E"/>
</g>
<defs>
<clipPath id="clip0_1952_161">
<rect width="28" height="28" fill="white"/>
</clipPath>
</defs>
</svg>
