<svg width="28" height="28" viewBox="0 0 28 28" fill="none" xmlns="http://www.w3.org/2000/svg">
<g clip-path="url(#clip0_1952_164)">
<path d="M28 2.73467V25.2653C27.9997 25.9905 27.7115 26.6859 27.1987 27.1987C26.6859 27.7115 25.9905 27.9997 25.2653 28H2.73467C2.00948 27.9997 1.31409 27.7115 0.801307 27.1987C0.288524 26.6859 0.000309181 25.9905 0 25.2653L0 2.73467C0.000309181 2.00948 0.288524 1.31409 0.801307 0.801307C1.31409 0.288524 2.00948 0.000309181 2.73467 0L25.2653 0C25.9905 0.000309181 26.6859 0.288524 27.1987 0.801307C27.7115 1.31409 27.9997 2.00948 28 2.73467ZM2.051 24.8558C2.051 25.459 2.541 25.949 3.14533 25.949H12.7423L7.72683 17.2632L16.5095 2.051H12.4472L2.051 20.0573V24.8558ZM15.372 16.8455L12.208 11.3645L10.1535 14.924C10.041 15.1188 9.98182 15.3398 9.98188 15.5648C9.98193 15.7898 10.0412 16.0108 10.1538 16.2056C10.2664 16.4003 10.4283 16.562 10.6232 16.6744C10.8181 16.7867 11.0392 16.8457 11.2642 16.8455H15.372ZM25.949 24.864V17.7765H9.09883L13.8168 25.949H24.8558C25.1443 25.949 25.4212 25.835 25.6259 25.6317C25.8307 25.4285 25.9468 25.1525 25.949 24.864ZM24.8558 2.051H17.5852L12.7458 10.4335L16.4477 16.8455H25.949V3.136C25.9468 2.84749 25.8307 2.57153 25.6259 2.36829C25.4212 2.16504 25.1443 2.05099 24.8558 2.051Z" fill="#0E0E0E"/>
</g>
<defs>
<clipPath id="clip0_1952_164">
<rect width="28" height="28" fill="white"/>
</clipPath>
</defs>
</svg>
