<svg width="28" height="28" viewBox="0 0 28 28" fill="none" xmlns="http://www.w3.org/2000/svg">
<g clip-path="url(#clip0_1952_167)">
<path d="M28 2.73467V25.2653C27.9997 25.9905 27.7115 26.6859 27.1987 27.1987C26.6859 27.7115 25.9905 27.9997 25.2653 28H2.73467C2.00948 27.9997 1.31409 27.7115 0.801307 27.1987C0.288524 26.6859 0.000309181 25.9905 0 25.2653L0 2.73467C0.000309181 2.00948 0.288524 1.31409 0.801307 0.801307C1.31409 0.288524 2.00948 0.000309181 2.73467 0L25.2653 0C25.9905 0.000309181 26.6859 0.288524 27.1987 0.801307C27.7115 1.31409 27.9997 2.00948 28 2.73467ZM25.949 22.1095L14.364 2.051H12.4518L11.375 3.913L24.1033 25.949H24.8558C25.459 25.949 25.949 25.459 25.949 24.8558V22.1095ZM17.8862 25.949L8.267 9.29483L6.7935 11.8463C6.62417 12.1403 6.53504 12.4736 6.53504 12.8129C6.53504 13.1522 6.62417 13.4855 6.7935 13.7795C8.5575 16.8303 13.8227 25.949 13.8227 25.949H17.8862ZM24.8558 2.051H15.4397L25.949 20.2463V3.14417C25.9481 2.85452 25.8326 2.57701 25.6278 2.3722C25.423 2.16739 25.1455 2.05192 24.8558 2.051ZM12.7458 25.949L5.69683 13.7445L2.051 20.0573V24.8558C2.051 25.459 2.541 25.949 3.14533 25.949H12.7458ZM23.0265 25.949L10.8372 4.84517L8.86433 8.26L18.963 25.949H23.0265Z" fill="#0E0E0E"/>
</g>
<defs>
<clipPath id="clip0_1952_167">
<rect width="28" height="28" fill="white"/>
</clipPath>
</defs>
</svg>
