<svg width="28" height="28" viewBox="0 0 28 28" fill="none" xmlns="http://www.w3.org/2000/svg">
<path d="M19.6058 1.16699C18.5789 1.1766 17.5578 1.32174 16.569 1.59866L16.499 1.61966C15.8763 1.5129 15.2464 1.454 14.6148 1.44349C13.3163 1.42133 12.1998 1.72699 11.3015 2.23683C10.4148 1.93816 8.57613 1.42366 6.6383 1.52633C5.28847 1.59749 3.81613 1.99533 2.7253 3.11299C1.6368 4.23066 1.06163 5.95966 1.18297 8.31283C1.21563 8.96266 1.4058 10.0208 1.72313 11.3928C2.03813 12.7637 2.4838 14.3678 3.03797 15.832C3.59213 17.2962 4.19997 18.6133 5.14963 19.507C5.6233 19.955 6.27547 20.3318 7.0443 20.3003C7.58447 20.2793 8.0733 20.0495 8.49447 19.71C8.6998 19.9725 8.91913 20.0868 9.11863 20.193C9.36947 20.326 9.61447 20.417 9.86763 20.4777C10.5687 20.6574 11.2989 20.6936 12.0143 20.5838C12.3258 20.5337 12.6536 20.4357 12.9803 20.2957C12.992 20.648 13.006 20.9933 13.0211 21.3433C13.0655 22.4517 13.0946 23.4748 13.4376 24.372C13.4925 24.519 13.643 25.2738 14.2391 25.94C14.8341 26.6073 16.0008 27.0227 17.3285 26.7473C18.2653 26.5525 19.4576 26.2013 20.2486 25.1093C21.0303 24.029 21.3838 22.4797 21.4538 19.9655C21.4713 19.8302 21.4923 19.7147 21.5145 19.6062L21.7011 19.6225H21.7221C22.722 19.6668 23.807 19.5292 24.7135 19.1208C25.5161 18.7592 26.1228 18.3952 26.565 17.7477C26.6758 17.5878 26.7971 17.3942 26.8298 17.0593C26.8625 16.7268 26.6665 16.2042 26.3386 15.9638C25.6818 15.4808 25.27 15.664 24.8278 15.7538C24.3922 15.8472 23.9505 15.8989 23.5025 15.909C24.7776 13.8277 25.6911 11.6157 26.2126 9.65799C26.5206 8.50299 26.6945 7.43783 26.7085 6.50683C26.7225 5.57583 26.6443 4.75099 26.0691 4.03699C24.2713 1.80866 21.7431 1.19266 19.7878 1.17166C19.7271 1.1701 19.6665 1.16971 19.6058 1.17049V1.16699ZM19.5545 1.85183C21.4036 1.83433 23.7673 2.33833 25.4636 4.44183C25.8451 4.91433 25.9583 5.60499 25.9455 6.45666C25.9315 7.30716 25.7693 8.32449 25.473 9.43983C24.8978 11.6005 23.8105 14.1182 22.2786 16.3792C22.333 16.4169 22.3918 16.4478 22.4536 16.4713C22.7733 16.5997 23.5013 16.7093 24.9561 16.42C25.3213 16.3442 25.5896 16.294 25.8673 16.4993C25.9337 16.5545 25.9865 16.6242 26.0215 16.7032C26.0566 16.7821 26.0728 16.8681 26.0691 16.9543C26.0537 17.0846 26.0042 17.2086 25.9256 17.3137C25.6456 17.7232 25.0903 18.1117 24.3786 18.4313C23.7498 18.716 22.8468 18.8642 22.0465 18.8735C21.6451 18.877 21.2753 18.8467 20.9615 18.7522L20.9405 18.7452C20.8191 19.878 20.5403 22.1168 20.3595 23.1377C20.2136 23.9613 19.9593 24.6158 19.4728 25.1058C18.9875 25.5958 18.3015 25.891 17.3775 26.0835C16.233 26.3215 15.3988 26.0648 14.861 25.625C14.3243 25.1875 14.0781 24.6053 13.93 24.2483C13.8285 24.0033 13.776 23.6848 13.7246 23.259C13.6682 22.7492 13.6304 22.2374 13.6115 21.7248C13.578 20.8261 13.5671 19.9267 13.5788 19.0275C13.1005 19.451 12.5055 19.7333 11.8673 19.8395C11.109 19.9643 10.43 19.8418 10.0251 19.7438C9.82666 19.6949 9.63475 19.6224 9.45347 19.528C9.26447 19.4312 9.08597 19.3215 8.96697 19.1045C8.89685 18.9806 8.87445 18.8354 8.90397 18.6962C8.94217 18.5547 9.02682 18.4302 9.1443 18.3427C9.36363 18.17 9.6518 18.0743 10.087 17.9857C10.8803 17.8282 11.1568 17.7197 11.3248 17.5902C11.4683 17.4793 11.6305 17.2553 11.9175 16.9252L11.914 16.882C11.4025 16.867 10.9011 16.7361 10.4475 16.4993C10.283 16.6673 9.4383 17.5342 8.40813 18.7358C7.9753 19.2387 7.49697 19.5268 6.9918 19.5478C6.48663 19.5688 6.03047 19.3215 5.64313 18.9575C4.8673 18.2272 4.24897 16.9707 3.70997 15.5508C3.1733 14.1298 2.73463 12.5478 2.4243 11.2003C2.11163 9.85283 1.9273 8.76666 1.90163 8.24283C1.78497 6.01566 2.32163 4.51533 3.2433 3.56916C4.16497 2.62299 5.4273 2.26366 6.6593 2.19599C8.86897 2.07233 10.9678 2.82016 11.3925 2.98116C12.2103 2.44216 13.2638 2.10616 14.581 2.12716C15.2053 2.13584 15.8267 2.2141 16.4336 2.36049L16.4558 2.35116C16.7234 2.26016 16.9948 2.18394 17.2701 2.12249C18.0197 1.95331 18.7849 1.86337 19.5533 1.85416L19.5545 1.85183ZM19.7213 2.56816H19.5615C18.9302 2.57666 18.3013 2.64542 17.6831 2.77349C18.9102 3.30792 19.9882 4.13369 20.8238 5.17916C21.33 5.80461 21.7499 6.49523 22.0721 7.23249C22.1935 7.51483 22.2751 7.75399 22.3206 7.93833C22.344 8.03166 22.3603 8.10983 22.365 8.19149C22.3693 8.24318 22.3649 8.29523 22.3521 8.34549L22.3451 8.35949C22.379 9.29632 22.1398 9.93099 22.1106 10.8247C22.0885 11.4733 22.2588 12.2352 22.3008 13.0647C22.3405 13.8463 22.2436 14.7038 21.721 15.5462C21.7645 15.5975 21.8065 15.6488 21.847 15.7002C23.2295 13.5885 24.227 11.2505 24.7578 9.25899C25.0413 8.18566 25.193 7.21383 25.2058 6.44383C25.2175 5.67383 25.0693 5.11499 24.8803 4.88283C23.401 3.04766 21.4001 2.58099 19.7213 2.56816ZM14.4421 2.84116C13.139 2.84349 12.2033 3.22616 11.4951 3.79783C10.7636 4.38933 10.2736 5.19783 9.95163 6.02733C9.63996 6.85628 9.44939 7.72583 9.3858 8.60916L9.40097 8.60099C9.79413 8.38633 10.311 8.17283 10.864 8.04916C11.4181 7.92549 12.0143 7.88699 12.5545 8.08999C13.0946 8.29299 13.5415 8.77133 13.7036 9.49699C14.4795 12.9807 13.4621 14.2757 13.0865 15.2522C12.9455 15.6066 12.824 15.9684 12.7225 16.336C12.7691 16.3228 12.8162 16.3134 12.8636 16.308C13.0686 16.2969 13.2731 16.337 13.4586 16.4247C13.8366 16.5763 14.0956 16.8937 14.2356 17.2577C14.2722 17.3541 14.2982 17.4552 14.3138 17.561C14.3294 17.6053 14.3367 17.6508 14.336 17.6975C14.294 19.0296 14.2987 20.3627 14.35 21.6945C14.3756 22.2708 14.413 22.7772 14.4608 23.1773C14.5075 23.5763 14.5751 23.8797 14.6183 23.9823C14.7583 24.3253 14.9648 24.7733 15.3381 25.0778C15.7115 25.3823 16.2446 25.5842 17.2211 25.3812C18.0681 25.205 18.5908 24.9612 18.9408 24.6077C19.2885 24.2565 19.4973 23.7677 19.6303 23.0175C19.8298 21.894 20.2311 18.6378 20.279 18.0242C20.258 17.5633 20.328 17.2075 20.4796 16.9368C20.6371 16.6592 20.8798 16.4888 21.0886 16.3967C21.1936 16.35 21.2916 16.3197 21.3721 16.2975C21.2863 16.1788 21.1969 16.0629 21.1038 15.9498C20.8021 15.5969 20.5548 15.2009 20.37 14.775C20.2809 14.5998 20.1864 14.4274 20.0865 14.2582C19.9406 14.0015 19.7551 13.6807 19.5615 13.3202C19.173 12.598 18.7506 11.723 18.5313 10.8702C18.3131 10.0197 18.2805 9.13883 18.8405 8.51699C19.3375 7.96516 20.2078 7.73649 21.5156 7.86483C21.4771 7.75283 21.4538 7.65949 21.3885 7.51016C21.0933 6.83231 20.7075 6.19768 20.2416 5.62366C19.1333 4.24933 17.3401 2.88666 14.5681 2.84233H14.4421V2.84116ZM7.12013 2.89599C6.98013 2.89599 6.84013 2.89988 6.70013 2.90766C5.58713 2.96949 4.5348 3.28333 3.7823 4.05799C3.02747 4.83149 2.53163 6.10083 2.63897 8.20316C2.66113 8.59983 2.83963 9.71516 3.1453 11.0382C3.45097 12.3635 3.88497 13.921 4.4053 15.2965C4.92563 16.6732 5.55797 17.8713 6.15763 18.4383C6.4598 18.7218 6.7223 18.8362 6.9603 18.8268C7.19947 18.8152 7.48647 18.6822 7.8388 18.2727C8.48046 17.5218 9.14579 16.7915 9.8338 16.0828C9.34768 15.6752 8.97347 15.1504 8.74647 14.558C8.52132 13.9712 8.45296 13.3359 8.54813 12.7147C8.6613 11.9237 8.67647 11.184 8.66363 10.6007C8.64963 10.0313 8.60763 9.65333 8.60763 9.41649V9.38383C8.60643 8.15082 8.82735 6.92768 9.2598 5.77299C9.5678 4.97733 10.0275 4.16883 10.717 3.51433C10.0403 3.29849 8.83863 2.96949 7.5378 2.90766C7.39792 2.90017 7.25788 2.89628 7.1178 2.89599H7.12013ZM20.7865 8.54499C20.0386 8.55433 19.6186 8.74216 19.3981 8.98716C19.0855 9.33483 19.0563 9.94382 19.25 10.6952C19.4436 11.4465 19.8415 12.2877 20.2171 12.9853C20.4038 13.3353 20.5858 13.6503 20.7328 13.9047C20.881 14.1613 20.9895 14.3433 21.0548 14.4997C21.117 14.6404 21.1824 14.7692 21.2508 14.8858C21.5401 14.292 21.5926 13.7098 21.5623 13.102C21.5238 12.3507 21.3441 11.5818 21.371 10.8037C21.4001 9.89366 21.5856 9.29983 21.602 8.59633C21.3314 8.56335 21.0591 8.54621 20.7865 8.54499ZM11.7098 8.66749C11.4813 8.66923 11.2536 8.69583 11.0308 8.74683C10.5879 8.85126 10.1604 9.01283 9.75913 9.22749C9.62458 9.29749 9.49625 9.37877 9.37413 9.47132L9.3508 9.49232C9.3578 9.64866 9.3893 10.0278 9.4033 10.5843C9.41497 11.1945 9.40097 11.9727 9.27963 12.8127C9.01597 14.642 10.3833 16.1563 11.991 16.1587C12.0843 15.783 12.2395 15.4027 12.3935 15.0013C12.8415 13.8312 13.7223 12.9783 12.9803 9.64749C12.859 9.10266 12.6186 8.88216 12.2873 8.75733C12.1018 8.6929 11.9061 8.66247 11.7098 8.66749ZM20.4365 8.88566H20.4925C20.5656 8.88799 20.6317 8.89577 20.6908 8.90899C20.7445 8.91978 20.7958 8.93992 20.8425 8.96849C20.8637 8.981 20.8821 8.99787 20.8964 9.01797C20.9106 9.03808 20.9205 9.06097 20.9253 9.08516V9.09449C20.9284 9.14577 20.9144 9.19662 20.8856 9.23916C20.8531 9.29799 20.8122 9.35182 20.7643 9.39899C20.6512 9.51897 20.5022 9.59883 20.3396 9.62649C20.1803 9.64536 20.0195 9.606 19.887 9.51566C19.8336 9.48041 19.7853 9.43802 19.7435 9.38966C19.7081 9.35189 19.6838 9.30504 19.6735 9.25433C19.6709 9.22937 19.6738 9.20417 19.6818 9.18042C19.6899 9.15667 19.7029 9.13492 19.7201 9.11666C19.7574 9.07751 19.8013 9.04514 19.8496 9.02099C20.0344 8.93615 20.2344 8.88933 20.4376 8.88333L20.4365 8.88566ZM11.8171 9.06533C11.8755 9.06533 11.9365 9.06999 12.0003 9.07933C12.1683 9.10266 12.3188 9.14583 12.4331 9.20999C12.4891 9.23877 12.5381 9.27649 12.5801 9.32316C12.6019 9.34883 12.6182 9.37721 12.6291 9.40833C12.64 9.43944 12.6435 9.47171 12.6396 9.50516C12.629 9.56702 12.6002 9.6243 12.5568 9.66966C12.5117 9.72401 12.4586 9.77121 12.3993 9.80966C12.2544 9.90833 12.0786 9.95103 11.9046 9.92982C11.7281 9.90132 11.5658 9.81566 11.4426 9.68599C11.3914 9.63377 11.3475 9.57491 11.312 9.51099C11.2756 9.45505 11.2596 9.38834 11.2665 9.32199C11.2828 9.20533 11.382 9.14699 11.4765 9.11199C11.5857 9.07734 11.7004 9.0631 11.8148 9.06999L11.8171 9.06533ZM21.8038 16.9193H21.8003C21.6381 16.9777 21.5051 17.001 21.392 17.0477C21.2792 17.0895 21.1858 17.1713 21.1295 17.2775C21.0595 17.4 21.0011 17.6182 21.0186 17.9892C21.0689 18.0223 21.124 18.0475 21.182 18.0638C21.3698 18.1198 21.686 18.1572 22.0395 18.1513C22.7418 18.1432 23.6075 17.9845 24.0671 17.7768C24.444 17.6065 24.794 17.3848 25.1066 17.1188C23.5701 17.4268 22.7033 17.3452 22.1701 17.1317C22.0386 17.078 21.9153 17.0073 21.8038 16.9193ZM12.9511 17.0185H12.9278C12.8695 17.0232 12.7843 17.0418 12.621 17.2192C12.236 17.6368 12.103 17.8982 11.7856 18.1432C11.4706 18.3882 11.0588 18.5177 10.2375 18.681C9.9773 18.7323 9.82913 18.7895 9.7288 18.835C9.76147 18.8607 9.75797 18.8677 9.8058 18.8922C9.92597 18.9563 10.0811 19.0123 10.2048 19.0438C10.5583 19.129 11.1381 19.2293 11.7436 19.129C12.3491 19.0287 12.978 18.7475 13.5146 18.0172C13.608 17.8912 13.6173 17.7045 13.5415 17.5038C13.4633 17.3055 13.2953 17.1328 13.1763 17.0838C13.1053 17.0503 13.0292 17.0291 12.9511 17.0208V17.0185Z" fill="#141517"/>
</svg>
