<svg width="28" height="28" viewBox="0 0 28 28" fill="none" xmlns="http://www.w3.org/2000/svg">
<g clip-path="url(#clip0_733_369)">
<path d="M27.2344 4.65937L26.2719 19.6656L17.1281 0L27.2344 4.65937ZM20.8906 24.0625L14 28L7.10938 24.0625L8.50938 20.6719H19.5125L20.8906 24.0625ZM14 7.45937L17.6094 16.2531H10.3906L14 7.45937ZM1.72813 19.6656L0.765625 4.65937L10.8719 0L1.72813 19.6656Z" fill="#0E0E0E"/>
<path d="M27.2344 4.65937L26.2719 19.6656L17.1281 0L27.2344 4.65937ZM20.8906 24.0625L14 28L7.10938 24.0625L8.50938 20.6719H19.5125L20.8906 24.0625ZM14 7.45937L17.6094 16.2531H10.3906L14 7.45937ZM1.72813 19.6656L0.765625 4.65937L10.8719 0L1.72813 19.6656Z" fill="#0E0E0E"/>
</g>
<defs>
<clipPath id="clip0_733_369">
<rect width="28" height="28" fill="white"/>
</clipPath>
</defs>
</svg>
