<svg width="24" height="24" viewBox="0 0 24 24" fill="none" xmlns="http://www.w3.org/2000/svg">
<path d="M2 15.5V2.6C2 2.44087 2.06321 2.28826 2.17574 2.17574C2.28826 2.06321 2.44087 2 2.6 2H21.4C21.5591 2 21.7117 2.06321 21.8243 2.17574C21.9368 2.28826 22 2.44087 22 2.6V15.5M2 15.5V17.4C2 17.5591 2.06321 17.7117 2.17574 17.8243C2.28826 17.9368 2.44087 18 2.6 18H21.4C21.5591 18 21.7117 17.9368 21.8243 17.8243C21.9368 17.7117 22 17.5591 22 17.4V15.5M2 15.5H22M9 22H10.5M10.5 22V18M10.5 22H13.5M13.5 22H15M13.5 22V18" stroke="black" stroke-width="1.5" stroke-linecap="round" stroke-linejoin="round"/>
</svg>
