<svg width="28" height="27" viewBox="0 0 28 27" fill="none" xmlns="http://www.w3.org/2000/svg">
<g clip-path="url(#clip0_733_472)">
<path d="M21.9105 14.2343C18.5474 14.2343 15.8211 16.9388 15.8211 20.2752C15.8211 23.6115 18.5474 26.3161 21.9105 26.3161C25.2737 26.3161 28 23.6114 28 20.2752C28 16.9388 25.2737 14.2343 21.9105 14.2343ZM6.08945 14.2348C2.72639 14.2348 0 16.9388 0 20.2752C0 23.6115 2.72639 26.3161 6.08945 26.3161C9.45273 26.3161 12.1792 23.6114 12.1792 20.2752C12.1792 16.9388 9.45273 14.2348 6.08945 14.2348ZM20.0895 6.68327C20.0895 10.0196 17.3631 12.7245 14.0001 12.7245C10.6368 12.7245 7.91055 10.0196 7.91055 6.68327C7.91055 3.34724 10.6367 0.642578 14 0.642578C17.363 0.642578 20.0892 3.34746 20.0892 6.68316" fill="#0E0E0E"/>
</g>
<defs>
<clipPath id="clip0_733_472">
<rect width="28" height="25.7143" fill="white" transform="translate(0 0.642578)"/>
</clipPath>
</defs>
</svg>
