<svg width="24" height="25" viewBox="0 0 24 25" fill="none" xmlns="http://www.w3.org/2000/svg">
<g clip-path="url(#clip0_1624_170)">
<path fill-rule="evenodd" clip-rule="evenodd" d="M20.8883 1.35879C20.7112 0.983065 20.3338 0.758789 19.8761 0.758789H18.1101C17.5969 0.758789 17.2146 0.965686 17.0127 1.3381L14.395 5.16982L16.6866 8.30886L20.6863 2.56044C21.1258 2.025 20.9735 1.54251 20.8883 1.35879Z" fill="#0E0E0E"/>
<path fill-rule="evenodd" clip-rule="evenodd" d="M7.09059 1.29521L7.08811 1.2919C6.68922 0.759766 6.15873 0.759766 5.98411 0.759766H4.25694C3.81418 0.759766 3.45253 0.962524 3.26218 1.31756C3.0677 1.68004 3.10908 2.11701 3.37804 2.5217L9.77694 11.4083L2.4197 21.6894C2.16232 22.0759 2.12591 22.5062 2.32039 22.8687C2.51073 23.2238 2.87322 23.4265 3.31515 23.4265H5.08122C5.53473 23.4265 5.93363 23.1907 6.13308 22.8182L14.3684 11.4489L7.09059 1.29521Z" fill="#0E0E0E"/>
<path fill-rule="evenodd" clip-rule="evenodd" d="M21.785 21.9962L17.3276 15.8721L15.3662 18.5783L18.8917 23.2872L18.9828 23.3286C19.135 23.394 19.2807 23.4254 19.428 23.4254H20.9268C21.2892 23.4254 21.5971 23.2641 21.7709 22.9835C21.9497 22.6939 21.9538 22.3355 21.785 21.9962Z" fill="#0E0E0E"/>
</g>
<defs>
<clipPath id="clip0_1624_170">
<rect width="22.2857" height="24" fill="white" transform="translate(0.96582 0.5)"/>
</clipPath>
</defs>
</svg>
