<svg width="28" height="25" viewBox="0 0 28 25" fill="none" xmlns="http://www.w3.org/2000/svg">
<g clip-path="url(#clip0_733_458)">
<path d="M0.908693 0.306713C0.777754 0.305079 0.648032 0.331134 0.528637 0.383048C0.409241 0.434962 0.303069 0.511476 0.217575 0.607218C0.132081 0.702959 0.0693392 0.815606 0.0337556 0.937246C-0.00182805 1.05889 -0.00939051 1.18657 0.0115993 1.31133L3.81993 23.6264C3.86736 23.8995 4.01298 24.1477 4.23118 24.3274C4.44939 24.5072 4.72624 24.607 5.0131 24.6092H23.2831C23.4981 24.6119 23.707 24.54 23.8716 24.4064C24.0363 24.2729 24.1457 24.0868 24.1801 23.8819L27.9885 1.31566C28.0095 1.19091 28.0019 1.06324 27.9663 0.941614C27.9307 0.819992 27.8679 0.707367 27.7824 0.611649C27.6969 0.51593 27.5907 0.439437 27.4713 0.387542C27.352 0.335647 27.2222 0.309608 27.0913 0.311253L0.908693 0.306713ZM16.9448 16.4347H11.1135L9.53455 8.47248H18.3578L16.9448 16.4347Z" fill="#000000"/>
<path d="M26.7543 8.46094H18.3416L16.9297 16.4168H11.1031L4.22314 24.2991C4.44118 24.4812 4.71921 24.5823 5.00747 24.5846H23.2674C23.4823 24.5873 23.691 24.5154 23.8555 24.382C24.02 24.2486 24.1295 24.0626 24.1638 23.8579L26.7543 8.46094Z" fill="#000000"/>
</g>
<defs>
<clipPath id="clip0_733_458">
<rect width="28" height="24.3871" fill="white" transform="translate(0 0.306641)"/>
</clipPath>
</defs>
</svg>
