<svg width="28" height="28" viewBox="0 0 28 28" fill="none" xmlns="http://www.w3.org/2000/svg">
<g clip-path="url(#clip0_733_404)">
<path d="M18.1125 17.3687C18.1125 19.95 15.7062 19.9062 15.4875 19.9062H10.5437V14.9625H15.4437C18.0687 14.875 18.1125 16.8438 18.1125 17.3687ZM15.0937 12.9062C15.1375 12.9062 17.4125 12.95 17.4125 10.675C17.4125 9.75625 17.2375 8.53125 15.0937 8.53125H10.5437V12.9062H15.0937ZM27.5187 4.9875V23.0562C27.5187 25.5063 25.5062 27.5625 22.9687 27.5625H5.0312C2.4937 27.5625 0.481201 25.55 0.481201 23.0125V4.9875C0.481201 2.45 2.4937 0.4375 5.0312 0.4375H23.1C25.5062 0.4375 27.5187 2.45 27.5187 4.9875ZM20.8687 17.675C20.8687 16.3625 20.5187 14.175 17.9375 13.6062V13.5625C19.3375 12.95 20.1687 11.8562 20.1687 10.2375C20.1687 9.8 20.3 6.3 15.4875 6.3H7.8312V22.05C15.575 22.05 16.3187 22.0938 17.7187 21.7437C18.5499 21.4813 20.8687 20.6938 20.8687 17.675Z" fill="#0E0E0E"/>
</g>
<defs>
<clipPath id="clip0_733_404">
<rect width="28" height="28" fill="white"/>
</clipPath>
</defs>
</svg>
