<svg width="24" height="24" viewBox="0 0 24 24" fill="none" xmlns="http://www.w3.org/2000/svg">
<path d="M2.69482 7.18445L11.6948 11.1845L12.3048 9.81445L3.30482 5.81445L2.69482 7.18445ZM12.7498 21.4995V10.4995H11.2498V21.4995H12.7498ZM12.3048 11.1845L21.3048 7.18445L20.6948 5.81445L11.6948 9.81445L12.3048 11.1845Z" fill="black"/>
<path d="M3 17.1095V6.88952C3.00003 6.77354 3.03367 6.66006 3.09685 6.5628C3.16003 6.46554 3.25005 6.38868 3.356 6.34152L11.756 2.60752C11.8328 2.57333 11.9159 2.55566 12 2.55566C12.0841 2.55566 12.1672 2.57333 12.244 2.60752L20.644 6.34152C20.75 6.38868 20.84 6.46554 20.9032 6.5628C20.9663 6.66006 21 6.77354 21 6.88952V17.1095C21 17.2255 20.9663 17.339 20.9032 17.4362C20.84 17.5335 20.75 17.6104 20.644 17.6575L12.244 21.3915C12.1672 21.4257 12.0841 21.4434 12 21.4434C11.9159 21.4434 11.8328 21.4257 11.756 21.3915L3.356 17.6575C3.25005 17.6104 3.16003 17.5335 3.09685 17.4362C3.03367 17.339 3.00003 17.2255 3 17.1095Z" stroke="black" stroke-width="1.5" stroke-linecap="round" stroke-linejoin="round"/>
<path d="M7.5 4.5L16.144 8.342C16.25 8.38916 16.34 8.46603 16.4032 8.56328C16.4663 8.66054 16.5 8.77402 16.5 8.89V12.5" stroke="black" stroke-width="1.5" stroke-linecap="round" stroke-linejoin="round"/>
</svg>
