<svg width="28" height="28" viewBox="0 0 28 28" fill="none" xmlns="http://www.w3.org/2000/svg">
<g clip-path="url(#clip0_733_476)">
<path d="M21.2733 0.583859C21.1276 0.58959 20.9856 0.631477 20.8601 0.705749C20.7345 0.780021 20.6295 0.884345 20.5543 1.00933C20.2828 1.49496 20.0009 1.97472 19.7088 2.44827C17.4244 6.21383 15.0996 5.79098 10.9558 3.80189L5.20374 1.09486C4.73911 0.882672 4.23249 1.09486 4.0203 1.5177L1.27214 7.73698C1.06039 8.1607 1.27214 8.7113 1.69521 8.92217C2.92108 9.47255 5.33171 10.6153 7.44505 11.6723C15.2691 15.397 21.9077 15.1848 26.981 6.93373H26.9814C27.2832 6.4577 27.5794 5.97817 27.87 5.49523C28.1237 5.07239 27.9962 4.52223 27.5736 4.26805L21.78 0.712922C21.6274 0.621032 21.4512 0.57614 21.2733 0.583859ZM11.6317 13.9943C7.59511 14.0871 4.03058 16.167 1.01839 21.0661C0.716488 21.5421 0.420134 22.0216 0.129394 22.5046C-0.123481 22.9274 0.0031749 23.4776 0.4258 23.7318L6.21939 27.2867C6.64224 27.5404 7.19108 27.4129 7.44505 26.9903C7.717 26.5049 7.99889 26.0251 8.29052 25.5513C10.5749 21.7858 12.9002 22.2086 17.044 24.1977L22.7956 26.9047C23.2602 27.1169 23.7682 26.9047 23.9791 26.4819L26.7285 20.2628C26.939 19.8391 26.7283 19.2896 26.3041 19.0776C25.0783 18.5273 22.669 17.3845 20.5543 16.3275C17.3763 14.7974 14.3936 13.9307 11.6317 13.9943Z" fill="#0E0E0E"/>
</g>
<defs>
<clipPath id="clip0_733_476">
<rect width="28" height="28" fill="white"/>
</clipPath>
</defs>
</svg>
