<svg width="28" height="28" viewBox="0 0 28 28" fill="none" xmlns="http://www.w3.org/2000/svg">
<path d="M10.1115 10.1112C9.08005 10.1112 8.09084 9.70143 7.3615 8.97209C6.63215 8.24274 6.22241 7.25354 6.22241 6.22209C6.22241 5.19064 6.63215 4.20144 7.3615 3.47209C8.09084 2.74275 9.08005 2.33301 10.1115 2.33301H14V10.1112M10.1115 10.1112H14M10.1115 10.1112C9.0802 10.1112 8.09115 10.5209 7.36191 11.2501C6.63268 11.9793 6.223 12.9684 6.223 13.9997C6.223 15.031 6.63268 16.02 7.36191 16.7493C8.09115 17.4785 9.0802 17.8882 10.1115 17.8882H14V10.1112" stroke="#000000" stroke-width="1.5"/>
<path d="M21.7781 13.9994C21.7781 15.0309 21.3683 16.0201 20.639 16.7494C19.9096 17.4788 18.9204 17.8885 17.889 17.8885C16.8575 17.8885 15.8683 17.4788 15.139 16.7494C14.4096 16.0201 13.9999 15.0309 13.9999 13.9994C13.9999 12.968 14.4096 11.9788 15.139 11.2494C15.8683 10.5201 16.8575 10.1104 17.889 10.1104C18.9204 10.1104 19.9096 10.5201 20.639 11.2494C21.3683 11.9788 21.7781 12.968 21.7781 13.9994ZM10.1114 17.8891H13.9999V21.7776C13.9997 22.5466 13.7714 23.2983 13.344 23.9376C12.9166 24.5769 12.3092 25.0751 11.5987 25.3693C10.8881 25.6634 10.1063 25.7402 9.35208 25.5901C8.59786 25.4399 7.9051 25.0695 7.3614 24.5256C6.81771 23.9817 6.44748 23.2889 6.29753 22.5346C6.14759 21.7804 6.22466 20.9986 6.51901 20.2881C6.81335 19.5776 7.31175 18.9704 7.95119 18.5432C8.59062 18.116 9.34238 17.8891 10.1114 17.8891Z" stroke="#000000" stroke-width="1.5"/>
<path d="M14 2.33301H17.8885C18.9199 2.33301 19.9092 2.74275 20.6385 3.47209C21.3678 4.20144 21.7776 5.19064 21.7776 6.22209C21.7776 7.25354 21.3678 8.24274 20.6385 8.97209C19.9092 9.70143 18.9199 10.1112 17.8885 10.1112H14V2.33301Z" stroke="#000000" stroke-width="1.5"/>
</svg>
