<svg width="28" height="28" viewBox="0 0 28 28" fill="none" xmlns="http://www.w3.org/2000/svg">
<path d="M13.8205 22.9514C14.926 23.9443 16.1945 24.7629 17.5803 25.3615C16.3751 25.8479 15.0591 26.0955 13.6744 26.0497C12.6955 26.0131 11.7606 25.8334 10.8853 25.532C12.0697 24.9416 13.0818 24.0527 13.8205 22.9514Z" fill="#0E0E0E" stroke="#FAF8F3" stroke-width="0.4"/>
<path d="M9.15352 12.036C9.00576 16.2106 10.7047 20.0229 13.518 22.6808C12.751 23.8599 11.6517 24.7862 10.3583 25.3419C6.7738 23.8651 4.30756 20.2784 4.45213 16.1769C4.51109 14.6029 4.94174 13.1372 5.66276 11.8519C6.80681 11.546 8.00806 11.5256 9.16109 11.7919C9.15676 11.8728 9.15361 11.9556 9.15352 12.036Z" fill="#0E0E0E" stroke="#FAF8F3" stroke-width="0.4"/>
<path d="M13.7318 22.3242C12.3775 21.0316 11.3057 19.4712 10.5849 17.7414C9.83322 15.9374 9.48133 13.9919 9.55345 12.0388L9.55359 12.0388V12.0314C9.55359 11.9865 9.55592 11.9396 9.55903 11.8887C12.6188 12.7961 14.7999 15.6713 14.6837 19.0069C14.642 20.1751 14.3146 21.3139 13.7318 22.3242Z" fill="#0E0E0E" stroke="#FAF8F3" stroke-width="0.4"/>
<path d="M14.4857 2.03201L14.6077 2.17577C14.764 2.36015 14.9889 2.62576 15.2632 2.95063C15.8118 3.60038 16.558 4.48709 17.3484 5.43496C18.9317 7.33358 20.6853 9.46908 21.389 10.4422C22.7108 12.2737 23.6329 14.427 23.5475 16.8367L23.5475 16.8369C23.42 20.5341 21.2105 23.6586 18.0797 25.1397C16.5909 24.5411 15.2197 23.6843 14.0293 22.6089C14.6802 21.5229 15.0435 20.2878 15.0835 19.0204C15.1443 17.3004 14.6163 15.6111 13.5868 14.2319C12.5903 12.897 11.1819 11.9299 9.58163 11.4785C9.68036 10.1304 9.98176 8.80454 10.4759 7.54574C11.3306 5.37566 12.7226 3.48234 14.4857 2.03201Z" fill="#0E0E0E" stroke="#FAF8F3" stroke-width="0.4"/>
</svg>
