<svg width="28" height="28" viewBox="0 0 28 28" fill="none" xmlns="http://www.w3.org/2000/svg">
<g clip-path="url(#clip0_733_450)">
<path d="M27.2862 12.7703L15.2296 0.714094C14.5357 0.0197812 13.4096 0.0197812 12.7146 0.714094L10.2113 3.21791L13.3871 6.39372C14.1253 6.14456 14.9715 6.31169 15.5597 6.89991C16.151 7.49184 16.3168 8.34519 16.0615 9.08588L19.1223 12.1468C19.8627 11.8916 20.7174 12.0565 21.3084 12.6489C22.1353 13.4751 22.1353 14.8145 21.3084 15.6412C21.1119 15.8378 20.8786 15.9937 20.6218 16.1001C20.3651 16.2065 20.0898 16.2613 19.8119 16.2613C19.5339 16.2613 19.2587 16.2065 19.0019 16.1001C18.7451 15.9937 18.5118 15.8378 18.3153 15.6412C18.0201 15.3457 17.8189 14.9696 17.737 14.5601C17.6551 14.1506 17.6961 13.726 17.8548 13.3397L15.0006 10.4854L15.0001 17.9975C15.2072 18.0995 15.3963 18.2346 15.5599 18.3974C16.3863 19.2236 16.3863 20.5626 15.5599 21.3906C14.7333 22.2168 13.3934 22.2168 12.5676 21.3906C11.7412 20.5628 11.7412 19.2238 12.5676 18.3974C12.7658 18.1993 13.0013 18.0424 13.2604 17.9358V10.3542C13.001 10.248 12.7654 10.091 12.5676 9.89241C11.9416 9.26678 11.7908 8.34803 12.112 7.57891L8.981 4.44794L0.714003 12.7145C0.380479 13.0481 0.193115 13.5006 0.193115 13.9723C0.193115 14.4441 0.380479 14.8965 0.714003 15.2301L12.7708 27.2863C13.4652 27.9806 14.5908 27.9806 15.2863 27.2863L27.2864 15.2861C27.6199 14.9524 27.8072 14.4999 27.8071 14.0282C27.8071 13.5564 27.6197 13.1039 27.2862 12.7703Z" fill="#000000"/>
</g>
<defs>
<clipPath id="clip0_733_450">
<rect width="28" height="28" fill="white"/>
</clipPath>
</defs>
</svg>
