<svg width="48" height="48" viewBox="0 0 48 48" fill="none" xmlns="http://www.w3.org/2000/svg">
<path d="M6.128 15.02C7.79275 11.7071 10.3456 8.92211 13.5016 6.97613C16.6576 5.03015 20.2923 3.99975 24 4C29.39 4 33.918 5.982 37.38 9.21L31.646 14.946C29.572 12.964 26.936 11.954 24 11.954C18.79 11.954 14.38 15.474 12.81 20.2C12.41 21.4 12.182 22.68 12.182 24C12.182 25.32 12.41 26.6 12.81 27.8C14.382 32.528 18.79 36.046 24 36.046C26.69 36.046 28.98 35.336 30.772 34.136C31.8109 33.452 32.7003 32.5645 33.3864 31.527C34.0725 30.4895 34.5412 29.3237 34.764 28.1H24V20.364H42.836C43.072 21.672 43.2 23.036 43.2 24.454C43.2 30.546 41.02 35.674 37.236 39.154C33.928 42.21 29.4 44 24 44C21.3733 44.0011 18.7721 43.4845 16.3451 42.4797C13.9181 41.475 11.7129 40.0019 9.85552 38.1445C7.99814 36.2871 6.52499 34.0819 5.52027 31.6549C4.51555 29.2279 3.99895 26.6267 4 24C4 20.772 4.772 17.72 6.128 15.02Z" fill="#0E0E0E"/>
</svg>
