<svg width="28" height="29" viewBox="0 0 28 29" fill="none" xmlns="http://www.w3.org/2000/svg">
<path d="M14.0002 6.98928L13.4869 6.91928L7.00023 18.1076C7.28023 18.3526 7.46689 18.6676 7.54856 19.0176H20.4519C20.5336 18.6676 20.7202 18.3526 21.0002 18.1076L14.5136 6.91928L14.0002 6.98928ZM7.70023 20.0093L12.6936 22.961C13.0319 22.646 13.4986 22.4593 14.0002 22.4593C14.5019 22.4593 14.9686 22.646 15.3069 22.961L20.3002 20.0093H7.70023ZM14.0002 26.391C13.4804 26.391 12.9819 26.1845 12.6143 25.8169C12.2467 25.4493 12.0402 24.9508 12.0402 24.431L12.1452 23.7776L7.12856 20.8026C6.76689 21.2226 6.24189 21.4793 5.64689 21.4793C5.12707 21.4793 4.62854 21.2728 4.26097 20.9052C3.89339 20.5376 3.68689 20.0391 3.68689 19.5193C3.68689 18.5976 4.30523 17.8276 5.15689 17.606V11.6443C4.18856 11.516 3.44189 10.6876 3.44189 9.68428C3.44189 9.16446 3.64839 8.66593 4.01597 8.29835C4.38354 7.93078 4.88207 7.72428 5.40189 7.72428C6.04356 7.72428 6.60356 8.02762 6.96523 8.49428L12.1102 5.54262L12.0402 5.01762C12.0402 3.93262 12.9152 3.05762 14.0002 3.05762C15.0852 3.05762 15.9602 3.93262 15.9602 5.01762L15.8902 5.54262L21.0352 8.49428C21.3969 8.02762 21.9569 7.72428 22.5986 7.72428C23.1184 7.72428 23.6169 7.93078 23.9845 8.29835C24.3521 8.66593 24.5586 9.16446 24.5586 9.68428C24.5586 10.6876 23.8119 11.516 22.8436 11.6443V17.606C23.6952 17.8276 24.3136 18.5976 24.3136 19.5193C24.3136 20.0391 24.1071 20.5376 23.7395 20.9052C23.3719 21.2728 22.8734 21.4793 22.3536 21.4793C21.7586 21.4793 21.2336 21.2226 20.8719 20.8026L15.8552 23.7776L15.9602 24.431C15.9602 24.9508 15.7537 25.4493 15.3862 25.8169C15.0186 26.1845 14.5201 26.391 14.0002 26.391ZM12.6002 6.39428L7.35023 9.40428L7.37356 9.68428C7.37356 10.5126 6.86023 11.2243 6.13689 11.516L6.17189 17.641L12.6002 6.39428ZM15.4002 6.39428L21.8286 17.641L21.8636 11.516C21.1402 11.2243 20.6269 10.5126 20.6269 9.68428L20.6502 9.40428L15.4002 6.39428Z" fill="#0E0E0E"/>
</svg>
