<svg width="24" height="25" viewBox="0 0 24 25" fill="none" xmlns="http://www.w3.org/2000/svg">
<path d="M11.53 2.5C11.53 4.9 13.5 6.85 15.88 6.85H17.66V8.55C17.66 10.95 19.6 12.89 22 12.9V3.34C22 3.11722 21.9115 2.90356 21.754 2.74603C21.5964 2.5885 21.3828 2.5 21.16 2.5H11.53ZM6.77 7.3C6.77526 8.44942 7.2342 9.55026 8.04697 10.363C8.85974 11.1758 9.96058 11.6347 11.11 11.64H12.91V13.36C12.9153 14.5094 13.3742 15.6103 14.187 16.423C14.9997 17.2358 16.1006 17.6947 17.25 17.7V8.13C17.2474 7.91068 17.1591 7.70107 17.004 7.54597C16.8489 7.39088 16.6393 7.3026 16.42 7.3H6.77ZM2 12.1C2 14.5 3.95 16.44 6.35 16.44H8.13V18.16C8.14 20.55 10.08 22.5 12.47 22.5V12.93C12.47 12.7072 12.3815 12.4936 12.224 12.336C12.0664 12.1785 11.8528 12.09 11.63 12.09L2 12.1Z" fill="#0E0E0E"/>
</svg>
