<svg width="29" height="28" viewBox="0 0 29 28" fill="none" xmlns="http://www.w3.org/2000/svg">
<g clip-path="url(#clip0_1624_119)">
<path d="M2.27946 19.3051C1.86333 18.8941 1.53294 18.4047 1.30744 17.865C1.08194 17.3254 0.96582 16.7464 0.96582 16.1615C0.96582 15.5767 1.08194 14.9976 1.30744 14.458C1.53294 13.9184 1.86333 13.4289 2.27946 13.0179L7.03713 8.30227C7.74495 7.60292 8.66397 7.15699 9.65135 7.03378C10.6387 6.91057 11.6391 7.11698 12.4971 7.62093C13.0291 7.93593 13.0245 8.6546 12.587 9.0886C12.1495 9.5226 11.4343 9.48527 10.8405 9.3126C10.4544 9.19946 10.045 9.19184 9.65497 9.29053C9.26493 9.38922 8.90845 9.59062 8.62263 9.87377L3.86496 14.5894C3.65688 14.795 3.49167 15.0398 3.37891 15.3096C3.26615 15.5795 3.20809 15.869 3.20809 16.1615C3.20809 16.454 3.26615 16.7436 3.37891 17.0134C3.49167 17.2833 3.65688 17.5281 3.86496 17.7336C4.73996 18.6016 6.16096 18.6016 7.03713 17.7336L16.5513 8.30227C17.3963 7.46831 18.5357 7.00072 19.7229 7.00072C20.9101 7.00072 22.0495 7.46831 22.8945 8.30227L27.6521 13.0179C28.0683 13.4289 28.3986 13.9184 28.6241 14.458C28.8496 14.9976 28.9658 15.5767 28.9658 16.1615C28.9658 16.7464 28.8496 17.3254 28.6241 17.865C28.3986 18.4047 28.0683 18.8941 27.6521 19.3051C26.8072 20.1391 25.6677 20.6066 24.4805 20.6066C23.2933 20.6066 22.1539 20.1391 21.309 19.3051L19.7223 17.7336L17.7413 19.6983C17.0333 20.3974 16.1142 20.8431 15.1269 20.9661C14.1395 21.0891 13.1391 20.8825 12.2813 20.3784C11.7481 20.0658 11.7528 19.3459 12.1903 18.9119C12.629 18.4779 13.343 18.5153 13.938 18.6879C14.3239 18.8008 14.733 18.8083 15.1228 18.7097C15.5126 18.611 15.8689 18.4097 16.1546 18.1268L18.194 16.1049C18.6012 15.7027 19.1505 15.4772 19.7229 15.4772C20.2952 15.4772 20.8446 15.7027 21.2518 16.1049L22.8945 17.7336C23.7695 18.6016 25.1905 18.6016 26.0666 17.7336C26.2747 17.5281 26.4399 17.2833 26.5527 17.0134C26.6654 16.7436 26.7235 16.454 26.7235 16.1615C26.7235 15.869 26.6654 15.5795 26.5527 15.3096C26.4399 15.0398 26.2747 14.795 26.0666 14.5894L21.309 9.87377C20.8865 9.45661 20.3166 9.2227 19.7229 9.2227C19.1291 9.2227 18.5593 9.45661 18.1368 9.87377L8.62263 19.3051C7.77767 20.1391 6.63824 20.6066 5.45104 20.6066C4.26385 20.6066 3.12442 20.1391 2.27946 19.3051Z" fill="#0E0E0E"/>
</g>
<defs>
<clipPath id="clip0_1624_119">
<rect width="28" height="28" fill="white" transform="translate(0.96582)"/>
</clipPath>
</defs>
</svg>
