<svg width="24" height="28" viewBox="0 0 24 28" fill="none" xmlns="http://www.w3.org/2000/svg">
<path d="M11.53 2.33301C11.53 5.13301 13.5 7.40801 15.88 7.40801H17.66V9.39134C17.66 12.1913 19.6 14.4547 22 14.4663V3.31301C22 3.0531 21.9115 2.80383 21.754 2.62004C21.5964 2.43626 21.3828 2.33301 21.16 2.33301H11.53ZM6.77 7.93301C6.77526 9.274 7.2342 10.5583 8.04697 11.5065C8.85974 12.4548 9.96058 12.9902 11.11 12.9963H12.91V15.003C12.9153 16.344 13.3742 17.6283 14.187 18.5765C14.9997 19.5248 16.1006 20.0602 17.25 20.0663V8.90134C17.2474 8.64546 17.1591 8.40092 17.004 8.21997C16.8489 8.03903 16.6393 7.93604 16.42 7.93301H6.77ZM2 13.533C2 16.333 3.95 18.5963 6.35 18.5963H8.13V20.603C8.14 23.3913 10.08 25.6663 12.47 25.6663V14.5013C12.47 14.2414 12.3815 13.9922 12.224 13.8084C12.0664 13.6246 11.8528 13.5213 11.63 13.5213L2 13.533Z" fill="#141517"/>
</svg>
