<svg width="48" height="48" viewBox="0 0 48 48" fill="none" xmlns="http://www.w3.org/2000/svg">
<path fill-rule="evenodd" clip-rule="evenodd" d="M32.0458 9.00561C35.7058 8.75361 38.5338 10.8896 40.4158 13.3536C42.3118 15.8396 43.6178 19.0856 44.3358 22.2776C45.0498 25.4696 45.2418 28.8996 44.6478 31.8236C44.0778 34.6316 42.5558 37.8436 39.1138 38.8736C35.8738 39.8416 33.0338 38.4336 31.0098 36.7296C28.9778 35.0196 27.2578 32.6236 25.9058 30.3776C25.2729 29.3225 24.6791 28.2445 24.1258 27.1456C23.573 28.2438 22.98 29.3212 22.3478 30.3756C20.9958 32.6236 19.2758 35.0196 17.2438 36.7296C15.2178 38.4336 12.3798 39.8416 9.13978 38.8736C5.69778 37.8436 4.17578 34.6336 3.60578 31.8236C3.01378 28.8996 3.20578 25.4696 3.91978 22.2776C4.63578 19.0856 5.94178 15.8376 7.83978 13.3536C9.71978 10.8896 12.5478 8.75361 16.2078 9.00561C19.6398 9.24561 22.1338 11.5716 23.6878 13.5436L24.1278 14.1216L24.5658 13.5416C26.1198 11.5716 28.6138 9.24361 32.0458 9.00561ZM15.7918 14.9916C14.9518 14.9336 13.8518 15.3636 12.6078 16.9956C11.3798 18.6056 10.3598 20.9816 9.77378 23.5916C9.18778 26.2016 9.10378 28.7496 9.48578 30.6316C9.81578 32.2516 10.3458 32.8336 10.6698 33.0376L10.8058 33.1056L10.8598 33.1256C11.3238 33.2656 12.0878 33.2256 13.3798 32.1376C14.6698 31.0536 15.9858 29.3116 17.2078 27.2836C17.7518 26.3776 18.2578 25.4496 18.7118 24.5576L19.2318 23.5076L19.6978 22.5136L20.1098 21.5976L20.4598 20.7836L20.7458 20.0916C20.3583 19.3146 19.9152 18.5667 19.4198 17.8536C18.1318 16.0216 16.8398 15.0656 15.7918 14.9936V14.9916ZM32.4618 14.9916C31.4138 15.0656 30.1218 16.0216 28.8338 17.8536C28.3384 18.5667 27.8952 19.3146 27.5078 20.0916L27.9618 21.1776L28.3418 22.0456L28.5558 22.5136L29.0238 23.5076L29.5438 24.5576C29.9978 25.4496 30.5018 26.3776 31.0458 27.2836C32.2678 29.3116 33.5858 31.0536 34.8718 32.1376C36.0738 33.1496 36.8178 33.2536 37.2918 33.1516L37.3958 33.1256C37.6558 33.0456 38.3618 32.6276 38.7678 30.6296C39.1478 28.7496 39.0658 26.2016 38.4798 23.5896C37.8958 20.9816 36.8758 18.6056 35.6458 16.9956C34.3998 15.3636 33.3018 14.9356 32.4618 14.9916Z" fill="#0E0E0E"/>
</svg>
