<svg width="28" height="28" viewBox="0 0 28 28" fill="none" xmlns="http://www.w3.org/2000/svg">
<g clip-path="url(#clip0_1624_198)">
<path fill-rule="evenodd" clip-rule="evenodd" d="M7 0C3.13403 0 0 3.13403 0 7V21C0 24.866 3.13403 28 7 28H21C24.866 28 28 24.866 28 21V7C28 3.13403 24.866 0 21 0H7ZM16.0733 5.33789H18.6151L23.275 8.23228L18.6151 22.7066H16.0733L18.1915 9.47358L13.5315 22.7066H10.9898L13.3198 10.3007L8.44802 22.7066H5.90625L8.44802 11.1279L5.90625 5.33789H8.44802L13.3198 9.88658L10.9898 5.33789H13.5315L18.1915 9.05948L16.0733 5.33789Z" fill="#0E0E0E"/>
</g>
<defs>
<clipPath id="clip0_1624_198">
<rect width="28" height="28" fill="white"/>
</clipPath>
</defs>
</svg>
