<svg width="28" height="28" viewBox="0 0 28 28" fill="none" xmlns="http://www.w3.org/2000/svg">
<g clip-path="url(#clip0_733_435)">
<path d="M16.437 3.12339C15.2592 1.73345 14.2442 0.311574 14.0382 0.0201989C14.0339 0.0139729 14.0282 0.0088792 14.0215 0.00535942C14.0149 0.00183963 14.0074 0 13.9999 0C13.9923 0 13.9849 0.00183963 13.9782 0.00535942C13.9716 0.0088792 13.9659 0.0139729 13.9616 0.0201989C13.756 0.311574 12.741 1.73345 11.5632 3.12339C1.46747 15.9846 13.1566 24.6619 13.1566 24.6619L13.2515 24.7276C13.3399 26.0703 13.5604 27.9996 13.5604 27.9996H14.4398C14.4398 27.9996 14.6594 26.0786 14.7482 24.7363L14.8436 24.6619C14.8436 24.6619 26.5327 15.985 16.437 3.12339ZM14.0001 24.4734C14.0001 24.4734 13.476 24.0267 13.3347 23.8027L13.3334 23.7786L13.9673 9.77601C13.9686 9.76823 13.9726 9.76115 13.9786 9.75605C13.9846 9.75094 13.9922 9.74814 14.0001 9.74814C14.008 9.74814 14.0156 9.75094 14.0216 9.75605C14.0276 9.76115 14.0316 9.76823 14.0329 9.77601L14.6673 23.7786L14.6655 23.8027C14.5242 24.0267 14.0005 24.4738 14.0005 24.4738" fill="#0E0E0E"/>
</g>
<defs>
<clipPath id="clip0_733_435">
<rect width="28" height="28" fill="white"/>
</clipPath>
</defs>
</svg>
