<svg width="28" height="28" viewBox="0 0 28 28" fill="none" xmlns="http://www.w3.org/2000/svg">
<g clip-path="url(#clip0_733_439)">
<path fill-rule="evenodd" clip-rule="evenodd" d="M25.7915 21.8108C24.2686 21.7683 23.0869 21.9245 22.0968 22.341C21.8116 22.4552 21.3544 22.4552 21.3168 22.814C21.469 22.9649 21.4874 23.2112 21.6208 23.4199C21.8492 23.7988 22.2495 24.3089 22.6113 24.5736L23.8298 25.4442C24.5722 25.8983 25.41 26.1635 26.1337 26.6176C26.5528 26.8827 26.9715 27.2235 27.3906 27.5075C27.6041 27.6588 27.7332 27.9056 28 27.9996V27.9423C27.867 27.7726 27.8285 27.5267 27.6955 27.3364L27.1237 26.7882C26.572 26.0501 25.886 25.4061 25.1436 24.8768C24.5342 24.4603 23.2011 23.8924 22.9539 23.1928L22.9163 23.1504C23.3345 23.108 23.8298 22.961 24.2301 22.8472C24.8776 22.6775 25.4678 22.7151 26.1332 22.5449L27.0485 22.2798V22.11C26.7055 21.7692 26.4578 21.3151 26.0965 20.9935C25.1252 20.161 24.0586 19.3472 22.9539 18.666C22.3633 18.2876 21.602 18.0408 20.9733 17.7197C20.7441 17.606 20.3639 17.5491 20.2309 17.3601C19.887 16.9445 19.6972 16.3954 19.45 15.9028L17.8881 12.6101C17.5455 11.8721 17.3355 11.134 16.9173 10.4528C14.956 7.23545 12.8223 5.28595 9.54716 3.37452C8.84279 2.97727 8.00541 2.80577 7.11466 2.59839L5.68622 2.52183C5.38129 2.3897 5.07679 2.03008 4.80991 1.85945C3.72491 1.17827 0.924912 -0.297858 0.124724 1.64727C-0.389338 2.87752 0.886849 4.08852 1.31997 4.71327C1.64416 5.14858 2.06285 5.64077 2.29166 6.13252C2.41985 6.45408 2.46229 6.79489 2.59616 7.1357C2.90066 7.96827 3.18679 8.89577 3.58622 9.67233C3.79972 10.0696 4.02372 10.4865 4.2906 10.8457C4.44285 11.0579 4.70972 11.1489 4.7666 11.4893C4.49972 11.8681 4.48135 12.4351 4.3291 12.909C3.6431 15.0475 3.90997 17.697 4.88079 19.2715C5.18616 19.7445 5.90541 20.7857 6.88104 20.388C7.7381 20.0472 7.54691 18.9688 7.79454 18.0225C7.85185 17.7954 7.81335 17.644 7.92754 17.4922V17.5346L8.70847 19.1053C9.2991 20.0328 10.3272 20.9979 11.1843 21.6419C11.6406 21.9823 12.0024 22.5694 12.5738 22.7772V22.7203H12.5362C12.422 22.5501 12.25 22.474 12.0978 22.3415C11.7552 22.0011 11.3746 21.5846 11.1077 21.2061C10.3084 20.1465 9.60404 18.9727 8.97535 17.7617C8.66997 17.1755 8.40354 16.5319 8.15679 15.9452C8.04129 15.7177 8.04129 15.3765 7.85141 15.264C7.56572 15.6796 7.14704 16.0401 6.93704 16.5507C6.57479 17.3645 6.5376 18.3676 6.40416 19.4085C6.3276 19.4277 6.36129 19.4085 6.3276 19.4509C5.7186 19.3 5.5086 18.6748 5.28022 18.1454C4.70929 16.8014 4.61347 14.6441 5.10872 13.0923C5.24216 12.6946 5.81397 11.4455 5.5856 11.0671C5.47054 10.7075 5.09035 10.4996 4.88035 10.2157C4.63272 9.85564 4.36716 9.40195 4.19522 9.0047C3.73891 7.9442 3.51054 6.77127 3.01485 5.7112C2.7856 5.21945 2.38616 4.70802 2.06241 4.25433C1.70016 3.74333 1.30116 3.3837 1.01504 2.7782C0.920099 2.56602 0.787099 2.22914 0.939349 2.00208C0.976974 1.8507 1.05354 1.78989 1.20535 1.75577C1.45254 1.54402 2.15779 1.81264 2.40541 1.92552C3.10979 2.20989 3.69997 2.47458 4.29016 2.87139C4.55704 3.06083 4.84272 3.42045 5.18572 3.51539H5.58604C6.19547 3.64752 6.8806 3.55783 7.4511 3.72758C8.46041 4.05002 9.37435 4.52252 10.1942 5.03395C12.6875 6.60458 14.7451 8.83758 16.135 11.5063C16.363 11.9416 16.4583 12.3389 16.6683 12.793C17.0687 13.7205 17.5635 14.6668 17.9629 15.5755C18.3632 16.4654 18.7438 17.3741 19.3148 18.1121C19.6009 18.5098 20.7428 18.7176 21.2568 18.9259C21.6379 19.0956 22.2281 19.2483 22.5715 19.4561C23.2186 19.8534 23.8661 20.308 24.4747 20.7428C24.7792 20.9695 25.732 21.4428 25.7889 21.8204L25.7915 21.8108ZM6.37135 5.36514C6.10837 5.36287 5.84619 5.39449 5.59129 5.4592V5.50164H5.62891C5.78116 5.80483 6.0476 6.01308 6.23835 6.2782L6.67672 7.18645L6.71391 7.14402C6.98079 6.95502 7.11422 6.65227 7.11422 6.19814C7.00004 6.06602 6.98122 5.93302 6.88629 5.80089C6.77166 5.61145 6.52404 5.51652 6.37135 5.36558V5.36514Z" fill="#0E0E0E"/>
</g>
<defs>
<clipPath id="clip0_733_439">
<rect width="28" height="28" fill="white"/>
</clipPath>
</defs>
</svg>
