<svg width="28" height="28" viewBox="0 0 28 28" fill="none" xmlns="http://www.w3.org/2000/svg">
<path d="M14.0001 27.9489C13.6011 27.9489 13.2301 27.8451 12.8836 27.6654L9.34975 25.6378C8.81891 25.3554 9.08491 25.2528 9.24475 25.2014C9.96108 24.9704 10.0941 24.9191 10.8384 24.5073C10.9177 24.4559 11.0251 24.4816 11.1044 24.5329L13.8146 26.0998C13.9196 26.1511 14.0537 26.1511 14.1331 26.0998L24.7346 20.1684C24.8396 20.1171 24.8932 20.0144 24.8932 19.8861V8.0491C24.8932 7.92076 24.8407 7.81809 24.7346 7.76676L14.1331 1.86226C14.0269 1.81093 13.8939 1.81093 13.8146 1.86226L3.21308 7.76676C3.10691 7.81809 3.05325 7.94643 3.05325 8.0491V19.8861C3.05325 19.9888 3.10691 20.1171 3.21308 20.1684L6.10875 21.7866C7.67675 22.5566 8.65908 21.6583 8.65908 20.7599V9.07693C8.65908 8.92293 8.79208 8.76893 8.97875 8.76893H10.3332C10.4931 8.76893 10.6517 8.89726 10.6517 9.07693V20.7588C10.6517 22.7876 9.50958 23.9683 7.51691 23.9683C6.90558 23.9683 6.42725 23.9683 5.07275 23.3266L2.28325 21.7866C1.94735 21.6015 1.66685 21.3302 1.47062 21.0007C1.27438 20.6711 1.16949 20.2953 1.16675 19.9118V8.07476C1.16675 7.30476 1.59141 6.58609 2.28325 6.20109L12.8847 0.268594C13.23 0.0920549 13.6123 0 14.0001 0C14.3879 0 14.7701 0.0920549 15.1154 0.268594L25.7181 6.19993C26.4087 6.58493 26.8334 7.30359 26.8334 8.0736V19.9106C26.8334 20.6806 26.4087 21.3993 25.7181 21.7854L15.1166 27.7156C14.7642 27.8684 14.3842 27.947 14.0001 27.9466M17.2679 19.8068C12.6187 19.8068 11.6621 17.7534 11.6621 16.0069C11.6621 15.8529 11.7951 15.6989 11.9806 15.6989H13.3619C13.5217 15.6989 13.6536 15.8016 13.6536 15.9556C13.8671 17.3159 14.4784 17.9833 17.2947 17.9833C19.5266 17.9833 20.4832 17.4956 20.4832 16.3406C20.4832 15.6733 20.2172 15.1856 16.7371 14.8519C13.8402 14.5684 12.0342 13.9536 12.0342 11.7194C12.0342 9.63926 13.8402 8.40609 16.8701 8.40609C20.2709 8.40609 21.9451 9.53659 22.1574 12.0018C22.1548 12.0852 22.1267 12.1658 22.0769 12.2328C22.0244 12.2841 21.9451 12.3354 21.8646 12.3354H20.4832C20.4161 12.3338 20.3514 12.3104 20.2988 12.2687C20.2462 12.227 20.2085 12.1694 20.1916 12.1044C19.8719 10.6928 19.0482 10.2296 16.8701 10.2296C14.4247 10.2296 14.1331 11.0509 14.1331 11.6681C14.1331 12.4124 14.4784 12.6434 17.7731 13.0541C21.0409 13.4648 22.5821 14.0551 22.5821 16.2624C22.5552 18.5234 20.6431 19.8068 17.2679 19.8068Z" fill="#000000"/>
</svg>
