<svg width="28" height="28" viewBox="0 0 28 28" fill="none" xmlns="http://www.w3.org/2000/svg">
<path d="M7.12133 6.8949C7.80267 7.4479 8.057 7.4059 9.33567 7.32073L21.3897 6.5974C21.6463 6.5974 21.4328 6.34073 21.3477 6.29873L19.3457 4.85207C18.9618 4.55457 18.4508 4.21273 17.472 4.2979L5.7995 5.14957C5.37483 5.19157 5.28967 5.40507 5.45883 5.5754L7.12133 6.8949ZM7.84467 9.70423V22.3859C7.84467 23.0684 8.18533 23.3227 8.953 23.2807L22.1993 22.5142C22.9658 22.4722 23.051 22.0032 23.051 21.4491V8.85257C23.051 8.29957 22.8387 8.0009 22.3697 8.04407L8.526 8.85257C8.015 8.89457 7.84467 9.15007 7.84467 9.70423ZM20.923 10.3844C21.007 10.7671 20.923 11.1509 20.538 11.1941L19.8998 11.3212V20.6837C19.3457 20.9824 18.8347 21.1516 18.4088 21.1516C17.7275 21.1516 17.5572 20.9392 17.0462 20.3011L12.8707 13.7467V20.0887L14.1925 20.3862C14.1925 20.3862 14.1925 21.1516 13.1262 21.1516L10.1873 21.3219C10.1022 21.1516 10.1873 20.7269 10.486 20.6417L11.2525 20.4294V12.0446L10.1873 11.9594C10.1022 11.5756 10.3157 11.0226 10.9118 10.9794L14.0642 10.7671L18.4088 17.4077V11.5336L17.3005 11.4064C17.2165 10.9374 17.5572 10.5979 17.983 10.5547L20.923 10.3844ZM4.8195 4.0004L16.9598 3.10673C18.4497 2.9784 18.8335 3.06473 19.7715 3.7449L23.646 6.46907C24.2853 6.9369 24.4988 7.06407 24.4988 7.57507V22.5142C24.4988 23.4511 24.1582 24.0041 22.9658 24.0892L8.86667 24.9409C7.97183 24.9829 7.546 24.8557 7.077 24.2596L4.22333 20.5566C3.71233 19.8752 3.5 19.3654 3.5 18.7681V5.48907C3.5 4.72373 3.8395 4.08557 4.8195 4.0004Z" fill="#0E0E0E"/>
</svg>
