<svg width="28" height="28" viewBox="0 0 28 28" fill="none" xmlns="http://www.w3.org/2000/svg">
<g clip-path="url(#clip0_733_338)">
<path fill-rule="evenodd" clip-rule="evenodd" d="M6.5625 0H21.4375C25.0619 0 28 2.93813 28 6.5625V21.4375C28 25.0619 25.0619 28 21.4375 28H6.5625C2.93813 28 0 25.0619 0 21.4375V6.5625C0 2.93813 2.93813 0 6.5625 0ZM6.2998 7.46783V19.4728C6.2998 19.5778 6.34651 19.6245 6.43981 19.6245H8.7031C8.78481 19.6128 8.8431 19.5428 8.83151 19.4611V15.7161C9.0531 15.7161 9.2164 15.7161 9.3331 15.7278C9.4498 15.7395 9.63648 15.7395 9.91644 15.7395H9.91651C10.8731 15.7395 11.7481 15.6345 12.5415 15.3428C13.2998 15.0628 13.9531 14.5728 14.4198 13.9195C14.8865 13.2662 15.1198 12.4379 15.1198 11.4345C15.1198 10.9095 15.0265 10.4078 14.8515 9.91783C14.6661 9.41863 14.3757 8.96507 13.9998 8.58783C13.5562 8.15686 13.0221 7.83006 12.4365 7.63112C11.7831 7.38613 10.9898 7.26953 10.0331 7.26953H10.0331C9.68307 7.26953 9.33309 7.26953 8.97151 7.28112C8.79689 7.28677 8.62773 7.2897 8.46401 7.29252C8.2886 7.29556 8.11944 7.29848 7.95651 7.30453C7.80447 7.31013 7.65786 7.31302 7.51538 7.31584C7.36265 7.31885 7.21466 7.32177 7.0698 7.32783C6.80151 7.33953 6.6148 7.33953 6.41651 7.33953C6.33481 7.33953 6.2998 7.38612 6.2998 7.46783ZM8.8431 13.5111V9.59112C8.9248 9.57953 9.0881 9.56783 9.32151 9.57953C9.54308 9.56783 9.81146 9.56783 10.1147 9.56783H10.1148C10.5931 9.55613 11.0598 9.62612 11.4915 9.80112C11.8298 9.92953 12.1098 10.1628 12.3081 10.4661C12.4944 10.7797 12.5875 11.1399 12.5765 11.5045C12.5765 12.0178 12.4598 12.4145 12.2148 12.7061C11.9581 12.9978 11.6315 13.2195 11.2581 13.3245C10.8265 13.4645 10.3715 13.5345 9.91651 13.5345H9.2981C9.16827 13.5345 9.02847 13.5245 8.87852 13.5137C8.86678 13.5128 8.85497 13.512 8.8431 13.5111ZM21.2798 12.4028C21.6765 12.4845 22.0498 12.6128 22.3998 12.7995C22.4465 12.8228 22.5048 12.8228 22.6098 12.7995C22.6448 12.7761 22.6681 12.7295 22.6681 12.6828V10.7811C22.6681 10.7345 22.6565 10.6878 22.6448 10.6411C22.6215 10.5945 22.5748 10.5478 22.5281 10.5361C22.2131 10.4078 21.8748 10.3145 21.5248 10.2678C21.0465 10.1978 20.5565 10.1628 20.0781 10.1628C19.2498 10.1628 18.5615 10.2911 18.0131 10.5711C17.5115 10.8045 17.0798 11.1778 16.7881 11.6445C16.5315 12.0761 16.3915 12.5545 16.3915 13.0561C16.3798 13.4645 16.4731 13.8728 16.6598 14.2461C16.878 14.6385 17.1809 14.9773 17.5465 15.2378C18.0598 15.5887 18.6167 15.8711 19.2031 16.0778C19.7748 16.2995 20.1598 16.4745 20.3465 16.6261C20.5331 16.7778 20.6265 16.9295 20.6265 17.0928C20.6265 17.3028 20.4981 17.5011 20.3115 17.5828C20.1015 17.6878 19.7865 17.7461 19.3431 17.7461C18.8765 17.7461 18.4098 17.6878 17.9665 17.5711C17.4531 17.4545 16.9748 17.2678 16.5198 16.9995C16.4848 16.9761 16.4498 16.9645 16.4148 16.9878C16.3798 17.0111 16.3681 17.0578 16.3681 17.0928V19.1228C16.3565 19.2161 16.4148 19.2978 16.4965 19.3445C16.8748 19.5212 17.275 19.6468 17.6865 19.7178C18.2115 19.8228 18.7365 19.8695 19.2731 19.8695C20.1131 19.8695 20.8131 19.7411 21.3848 19.4961C21.912 19.2843 22.3661 18.9235 22.6915 18.4578C22.9948 18.0028 23.1581 17.4545 23.1465 16.9061C23.1581 16.4861 23.0648 16.0778 22.8781 15.7045C22.6565 15.3078 22.3415 14.9811 21.9565 14.7361C21.3965 14.3861 20.7898 14.0945 20.1598 13.8845C19.8784 13.768 19.602 13.6396 19.3315 13.4995C19.1798 13.4178 19.0398 13.3128 18.9348 13.1845C18.8648 13.0911 18.8181 12.9861 18.8181 12.8811C18.8181 12.7761 18.8531 12.6595 18.9115 12.5661C18.9931 12.4495 19.1215 12.3678 19.2731 12.3328C19.4948 12.2745 19.7398 12.2395 19.9731 12.2511C20.4165 12.2511 20.8481 12.3095 21.2798 12.4028Z" fill="#141517"/>
</g>
<defs>
<clipPath id="clip0_733_338">
<rect width="28" height="28" fill="white"/>
</clipPath>
</defs>
</svg>
