<svg width="28" height="28" viewBox="0 0 28 28" fill="none" xmlns="http://www.w3.org/2000/svg">
<g clip-path="url(#clip0_733_345)">
<path fill-rule="evenodd" clip-rule="evenodd" d="M6.5625 0H21.4375C25.0619 0 28 2.93813 28 6.5625V21.4375C28 25.0619 25.0619 28 21.4375 28H6.5625C2.93813 28 0 25.0619 0 21.4375V6.5625C0 2.93813 2.93813 0 6.5625 0ZM5.90625 7.96392V19.9689C5.90625 20.0739 5.95295 20.1206 6.04625 20.1206H8.30955C8.39125 20.1089 8.44955 20.0389 8.43795 19.9573V16.2123H8.43806C8.6596 16.2123 8.82297 16.2123 8.93955 16.2239C9.05625 16.2356 9.24295 16.2356 9.52295 16.2356C10.4795 16.2356 11.3545 16.1306 12.148 15.8389C12.9062 15.5589 13.5595 15.0689 14.0263 14.4156C14.4929 13.7623 14.7263 12.934 14.7263 11.9306C14.7263 11.4056 14.633 10.9039 14.458 10.4139C14.2726 9.91472 13.9821 9.46116 13.6063 9.08392C13.1626 8.653 12.6286 8.32623 12.043 8.12733C11.3895 7.88233 10.5963 7.76562 9.63955 7.76562C9.28955 7.76562 8.93955 7.76563 8.57795 7.77733C8.40418 7.7829 8.23581 7.78579 8.07283 7.78859C7.89657 7.79162 7.72662 7.79454 7.56295 7.80062C7.40943 7.80633 7.26144 7.80925 7.11764 7.81209C6.96639 7.81508 6.81978 7.81798 6.67625 7.82392C6.40795 7.83562 6.22125 7.83562 6.02295 7.83562C5.94125 7.83562 5.90625 7.88233 5.90625 7.96392ZM8.44955 14.0189V10.0989C8.53125 10.0873 8.69455 10.0756 8.92795 10.0873C9.14953 10.0756 9.41791 10.0756 9.72118 10.0756H9.72125C10.1995 10.0639 10.6663 10.1339 11.098 10.3089C11.4363 10.4373 11.7163 10.6706 11.9145 10.9739C12.1008 11.2875 12.1939 11.6477 12.183 12.0123C12.183 12.5256 12.0663 12.9223 11.8213 13.2139C11.5645 13.5056 11.238 13.7273 10.8645 13.8323C10.433 13.9723 9.97795 14.0423 9.52295 14.0423H8.90455C8.77471 14.0423 8.6349 14.0323 8.48494 14.0215C8.4732 14.0206 8.46141 14.0198 8.44955 14.0189ZM18.448 10.7873H16.4062C16.3947 10.7756 16.3713 10.7756 16.3713 10.7873C16.313 10.7989 16.278 10.8573 16.2897 10.9156L16.2924 10.9476C16.3148 11.2044 16.3363 11.4513 16.3363 11.7089C16.3421 11.8606 16.345 12.0123 16.348 12.1639C16.3509 12.3156 16.3538 12.4673 16.3597 12.6189C16.3713 12.9223 16.3713 13.2139 16.3713 13.4939V20.0039C16.383 20.0973 16.4647 20.1556 16.558 20.1439H18.8563C18.9613 20.1439 19.008 20.0973 19.008 19.9806V14.0306C19.1713 13.8439 19.3813 13.7039 19.603 13.5989C19.918 13.4589 20.2446 13.3539 20.583 13.2839C20.9913 13.1906 21.423 13.1556 21.843 13.1673C21.9713 13.1673 22.0297 13.1323 22.0297 13.0389V10.7173C22.018 10.6356 21.948 10.5773 21.8663 10.5889C21.248 10.5889 20.6297 10.7406 20.093 11.0439C19.6182 11.2981 19.1949 11.6384 18.8447 12.0473C18.8447 11.8956 18.833 11.7556 18.8213 11.6273C18.8097 11.5106 18.7863 11.3823 18.763 11.2656C18.7513 11.1606 18.728 11.0673 18.693 10.9739C18.658 10.8689 18.5647 10.7873 18.448 10.7873Z" fill="#000000"/>
</g>
<defs>
<clipPath id="clip0_733_345">
<rect width="28" height="28" fill="white"/>
</clipPath>
</defs>
</svg>
