<svg width="28" height="28" viewBox="0 0 28 28" fill="none" xmlns="http://www.w3.org/2000/svg">
<path d="M13.9999 11.7951C15.2016 11.7951 16.1816 12.7751 16.1816 14.0001C16.1816 15.1668 15.2016 16.1585 13.9999 16.1585C12.7983 16.1585 11.8183 15.1668 11.8183 14.0001C11.8183 12.7751 12.7983 11.7951 13.9999 11.7951ZM8.59825 23.3335C9.33325 23.7768 10.9433 23.1001 12.7983 21.3501C12.1916 20.6618 11.5966 19.9151 11.0366 19.1335C10.0965 19.0429 9.16188 18.9027 8.23659 18.7135C7.64159 21.2101 7.86325 22.9251 8.59825 23.3335ZM9.42659 16.6368L9.08825 16.0418C8.95992 16.3801 8.83159 16.7185 8.74992 17.0451C9.06492 17.1151 9.41492 17.1735 9.77659 17.2318L9.42659 16.6368ZM17.0566 15.7501L18.0016 14.0001L17.0566 12.2501C16.7066 11.6318 16.3333 11.0835 15.9949 10.5351C15.3649 10.5001 14.6999 10.5001 13.9999 10.5001C13.2999 10.5001 12.6349 10.5001 12.0049 10.5351C11.6666 11.0835 11.2933 11.6318 10.9433 12.2501L9.99825 14.0001L10.9433 15.7501C11.2933 16.3685 11.6666 16.9168 12.0049 17.4651C12.6349 17.5001 13.2999 17.5001 13.9999 17.5001C14.6999 17.5001 15.3649 17.5001 15.9949 17.4651C16.3333 16.9168 16.7066 16.3685 17.0566 15.7501ZM13.9999 7.91015C13.7783 8.16681 13.5449 8.43514 13.3116 8.75014H14.6883C14.4549 8.43514 14.2216 8.16681 13.9999 7.91015ZM13.9999 20.0901C14.2216 19.8335 14.4549 19.5651 14.6883 19.2501H13.3116C13.5449 19.5651 13.7783 19.8335 13.9999 20.0901ZM19.3899 4.66681C18.6666 4.22348 17.0566 4.90015 15.2016 6.65014C15.8083 7.33848 16.4033 8.08514 16.9633 8.86681C17.9199 8.96014 18.8649 9.10015 19.7633 9.28681C20.3583 6.79014 20.1366 5.07515 19.3899 4.66681ZM18.5733 11.3635L18.9116 11.9585C19.0399 11.6201 19.1683 11.2818 19.2499 10.9551C18.9349 10.8851 18.5849 10.8268 18.2233 10.7685L18.5733 11.3635ZM20.2649 3.13848C21.9799 4.11848 22.1666 6.69681 21.4433 9.70681C24.4066 10.5818 26.5416 12.0285 26.5416 14.0001C26.5416 15.9718 24.4066 17.4185 21.4433 18.2935C22.1666 21.3035 21.9799 23.8818 20.2649 24.8618C18.5616 25.8418 16.2399 24.7218 13.9999 22.5868C11.7599 24.7218 9.43825 25.8418 7.72325 24.8618C6.01992 23.8818 5.83325 21.3035 6.55659 18.2935C3.59325 17.4185 1.45825 15.9718 1.45825 14.0001C1.45825 12.0285 3.59325 10.5818 6.55659 9.70681C5.83325 6.69681 6.01992 4.11848 7.72325 3.13848C9.43825 2.15848 11.7599 3.27848 13.9999 5.41348C16.2399 3.27848 18.5616 2.15848 20.2649 3.13848ZM19.9266 14.0001C20.3233 14.8751 20.6733 15.7501 20.9649 16.6368C23.4149 15.9018 24.7916 14.8518 24.7916 14.0001C24.7916 13.1485 23.4149 12.0985 20.9649 11.3635C20.6733 12.2501 20.3233 13.1251 19.9266 14.0001ZM8.07325 14.0001C7.67659 13.1251 7.32659 12.2501 7.03492 11.3635C4.58492 12.0985 3.20825 13.1485 3.20825 14.0001C3.20825 14.8518 4.58492 15.9018 7.03492 16.6368C7.32659 15.7501 7.67659 14.8751 8.07325 14.0001ZM18.5733 16.6368L18.2233 17.2318C18.5849 17.1735 18.9349 17.1151 19.2499 17.0451C19.1683 16.7185 19.0399 16.3801 18.9116 16.0418L18.5733 16.6368ZM15.2016 21.3501C17.0566 23.1001 18.6666 23.7768 19.3899 23.3335C20.1366 22.9251 20.3583 21.2101 19.7633 18.7135C18.8649 18.9001 17.9199 19.0401 16.9633 19.1335C16.4033 19.9151 15.8083 20.6618 15.2016 21.3501ZM9.42659 11.3635L9.77659 10.7685C9.41492 10.8268 9.06492 10.8851 8.74992 10.9551C8.83159 11.2818 8.95992 11.6201 9.08825 11.9585L9.42659 11.3635ZM12.7983 6.65014C10.9433 4.90015 9.33325 4.22348 8.59825 4.66681C7.86325 5.07515 7.64159 6.79014 8.23659 9.28681C9.16188 9.09763 10.0965 8.95744 11.0366 8.86681C11.5966 8.08514 12.1916 7.33848 12.7983 6.65014Z" fill="#0E0E0E"/>
</svg>
