<svg width="28" height="28" viewBox="0 0 28 28" fill="none" xmlns="http://www.w3.org/2000/svg">
<mask id="mask0_733_408" style="mask-type:luminance" maskUnits="userSpaceOnUse" x="0" y="0" width="28" height="28">
<path d="M0 0H28V28H0V0Z" fill="white"/>
</mask>
<g mask="url(#mask0_733_408)">
<path d="M14 0C21.7 0 28 6.3 28 14C28 21.7 21.7 28 14 28C6.3 28 0 21.7 0 14C0 6.3 6.3 0 14 0ZM11.2 18.6375C11.375 19.4246 11.375 20.1246 11.2 20.7375L11.1125 21C11.1125 21.0875 11.025 21.175 11.025 21.175C10.85 21.525 10.675 21.7875 10.4125 22.1375C9.625 23.0125 8.4875 23.3625 7.9625 23.1C7.4375 22.8375 7.7 21.525 8.6625 20.5625C9.7125 19.5125 11.1125 18.8125 11.1125 18.8125L11.2 18.6375ZM22.75 5.95C22.1375 3.5 18.025 2.625 14.0875 4.025C11.8125 4.9 9.275 6.2125 7.4375 7.875C5.25 9.8875 4.9875 11.6375 5.075 12.3375C5.6 14.875 9.1 16.625 10.5875 17.85C10.15 18.025 7 19.6 6.3 21.2625C5.5125 23.0125 6.3875 24.2375 7 24.325C8.8375 24.85 10.7625 23.8875 11.725 22.4C12.6875 20.9125 12.6 19.075 12.1625 18.1125C12.8431 17.9022 13.5667 17.872 14.2625 18.025C16.7125 18.2875 17.2375 19.8625 17.0625 20.475C16.8875 21.0875 16.45 21.4375 16.275 21.6125C16.1 21.7 16.0125 21.7875 16.1 21.7875C16.1 21.875 16.1875 21.875 16.3625 21.875C16.5375 21.875 17.675 21.35 17.675 20.125C17.7625 18.6375 16.275 16.975 13.7375 16.975C12.6875 16.975 11.9875 17.0625 11.55 17.2375C11.55 17.15 11.4625 17.15 11.4625 17.15C9.8875 15.4875 7 14.2625 7.0875 11.9875C7.0875 11.2 7.4375 9.0125 12.6875 6.3875C16.975 4.2 20.475 4.8125 21.0875 6.125C21.9625 7.9625 19.25 11.4625 14.7875 11.9875C13.0375 12.1625 12.1625 11.55 11.9875 11.2875C11.725 11.025 11.725 11.025 11.6375 11.025C11.4625 11.1125 11.55 11.2875 11.6375 11.4625C11.8125 11.8125 12.3375 12.425 13.3 12.775C14.0875 13.0375 16.1 13.2125 18.55 12.25C21.2625 11.2 23.3625 8.3125 22.75 5.8625V5.95Z" fill="#0E0E0E"/>
</g>
</svg>
