<svg width="24" height="28" viewBox="0 0 24 28" fill="none" xmlns="http://www.w3.org/2000/svg">
<g clip-path="url(#clip0_733_312)">
<path d="M10.3389 9.485C11.7119 9.485 9.1769 17.7403 9.4939 21.3127C9.8109 24.885 13.1899 23.9003 12.9789 21.8062C12.5559 18.2327 14.6689 7.02217 16.6749 7.02217C18.1529 7.02217 14.9849 14.6603 15.6189 19.4647C16.0409 22.5447 19.6309 21.6825 19.2089 19.5883C18.0469 13.3047 21.8489 7.26833 21.3209 2.83383C21.1099 0.985833 20.1589 0 19.2089 0C15.8299 0 13.0839 8.13167 13.0839 8.13167C13.0839 8.13167 13.5069 3.57233 10.6559 3.32617C6.6429 3.08 2.5249 14.9065 2.6299 25.6247C2.7359 29.0745 6.3259 28.4585 6.1149 25.7483C5.9039 20.9417 8.2269 9.485 10.3399 9.485H10.3389Z" fill="#141517"/>
</g>
<defs>
<clipPath id="clip0_733_312">
<rect width="24" height="28" fill="white"/>
</clipPath>
</defs>
</svg>
