<svg width="28" height="28" viewBox="0 0 28 28" fill="none" xmlns="http://www.w3.org/2000/svg">
<g clip-path="url(#clip0_1183_135)">
<path d="M21.3202 0.777344H5.36735C2.83263 0.777344 0.777832 2.83214 0.777832 5.36686V21.3197C0.777832 23.8544 2.83263 25.9092 5.36735 25.9092H21.3202C23.8549 25.9092 25.9097 23.8544 25.9097 21.3197V5.36686C25.9097 2.83214 23.8549 0.777344 21.3202 0.777344Z" fill="#7F56D9"/>
<path d="M2.34863 7.94441C2.34863 4.85395 4.85395 2.34863 7.94441 2.34863H21.8848C24.9753 2.34863 27.4806 4.85395 27.4806 7.94441V21.8848C27.4806 24.9753 24.9753 27.4806 21.8848 27.4806H7.94441C4.85395 27.4806 2.34863 24.9753 2.34863 21.8848V7.94441Z" fill="#0C111D"/>
<path d="M0.777832 6.37312C0.777832 3.28266 3.28315 0.777344 6.37361 0.777344H20.314C23.4044 0.777344 25.9097 3.28266 25.9097 6.37312V20.3135C25.9097 23.4039 23.4044 25.9092 20.314 25.9092H6.37361C3.28315 25.9092 0.777832 23.4039 0.777832 20.3135V6.37312Z" fill="black"/>
<path fill-rule="evenodd" clip-rule="evenodd" d="M6.37374 0.287109H20.3141C23.6756 0.287109 26.4007 3.01218 26.4007 6.37374V20.3141C26.4007 23.6756 23.6756 26.4007 20.3141 26.4007H6.37374C3.01218 26.4007 0.287109 23.6756 0.287109 20.3141V6.37374C0.287109 3.01218 3.01218 0.287109 6.37374 0.287109ZM6.37374 0.777964C3.28328 0.777964 0.777964 3.28328 0.777964 6.37374V20.3141C0.777964 23.4046 3.28328 25.9099 6.37374 25.9099H20.3141C23.4046 25.9099 25.9099 23.4046 25.9099 20.3141V6.37374C25.9099 3.28328 23.4046 0.777964 20.3141 0.777964H6.37374Z" fill="#0C111D"/>
<path d="M19.405 6.91309L17.592 7.47512L17.6078 6.91309L15.3757 7.64195L15.391 7.14119L11.8147 8.30842L11.7951 8.65935C11.6548 8.72725 11.5188 8.80348 11.3878 8.88779C10.4546 9.49243 9.87474 10.3592 9.64786 11.4879C9.43693 12.4554 9.54644 13.1851 9.97647 13.677C10.4064 14.1688 11.1161 14.6002 12.1056 14.9711C12.9491 15.277 13.6142 15.511 14.101 15.673C14.5878 15.8349 14.7906 16.0768 14.7093 16.3986C14.6441 16.6891 14.4495 16.8665 14.1252 16.9309C13.801 16.9953 13.2905 17.0273 12.5938 17.0268C12.01 17.0268 11.357 16.9622 10.635 16.8332C9.913 16.7041 9.29226 16.5187 8.77286 16.2768L8.14014 19.2522C8.26054 19.3033 8.39284 19.3522 8.53711 19.3991L8.17622 20.4556L9.85537 20.1541L9.76678 20.6764L12.0779 20.2612L11.9964 20.7553L15.6997 20.0907L15.8114 19.5237C16.2431 19.3872 16.6185 19.2162 16.9375 19.0109C17.8868 18.399 18.4911 17.5201 18.7505 16.3743C18.8966 15.7133 18.9088 15.165 18.7869 14.7294C18.665 14.294 18.3849 13.9188 17.9464 13.6041C17.5085 13.2895 16.8677 12.9952 16.024 12.7213C15.2127 12.4474 14.5962 12.2494 14.1746 12.1275C13.753 12.0054 13.5745 11.7922 13.6393 11.4877C13.688 11.2137 13.9273 11.0404 14.3571 10.9677C14.7869 10.895 15.302 10.859 15.9023 10.8598C16.4206 10.8643 16.9376 10.9128 17.4476 11.005C18.0072 11.1017 18.4979 11.2546 18.9197 11.4639L19.528 8.53709C19.3699 8.48062 19.1897 8.42664 18.9873 8.37515L19.405 6.91309Z" fill="#0C111D"/>
<path d="M18.6687 6.17773L16.8557 6.73976L16.8714 6.17773L14.6395 6.9066L14.6546 6.40584L11.0784 7.5731L11.0588 7.92404C10.9185 7.99186 10.7825 8.06816 10.6515 8.1524C9.71837 8.75712 9.13839 9.6238 8.91151 10.7526C8.70065 11.7201 8.81016 12.4497 9.24012 12.9416C9.67015 13.4334 10.3798 13.8648 11.3692 14.2357C12.2127 14.5417 12.8779 14.7756 13.3647 14.9376C13.8516 15.0996 14.0543 15.3414 13.973 15.6632C13.9078 15.9537 13.7131 16.1312 13.3889 16.1956C13.0646 16.26 12.5542 16.2919 11.8575 16.2914C11.2736 16.2914 10.6207 16.2269 9.89866 16.0978C9.17665 15.9688 8.55599 15.7833 8.03659 15.5414L7.40381 18.5168C7.5242 18.5679 7.65654 18.6169 7.80084 18.6637L7.43992 19.7203L9.11902 19.4187L9.03051 19.9411L11.3415 19.5259L11.2601 20.0199L14.9634 19.3553L15.075 18.7884C15.5068 18.6518 15.8822 18.4808 16.2012 18.2755C17.1504 17.6636 17.7548 16.7847 18.0142 15.6389C18.1603 14.9779 18.1724 14.4296 18.0506 13.9941C17.9288 13.5586 17.6486 13.1835 17.2101 12.8687C16.7721 12.5541 16.1313 12.2598 15.2877 11.986C14.4764 11.7121 13.86 11.5141 13.4383 11.3921C13.0166 11.27 12.8382 11.0568 12.9031 10.7523C12.9518 10.4784 13.191 10.3051 13.6208 10.2324C14.0506 10.1597 14.5656 10.1237 15.166 10.1244C15.6843 10.1289 16.2012 10.1775 16.7112 10.2696C17.2708 10.3663 17.7615 10.5193 18.1834 10.7286L18.7917 7.80177C18.6337 7.74524 18.4534 7.69125 18.251 7.63978L18.6687 6.17773Z" fill="white"/>
<path fill-rule="evenodd" clip-rule="evenodd" d="M19.7654 6.54488L19.2914 8.20403C19.4051 8.237 19.5115 8.27115 19.6105 8.30654L19.8116 8.3784L19.0951 11.8255L18.8105 11.6843C18.4137 11.4874 17.9465 11.3407 17.4056 11.2474L17.4047 11.2472L17.4037 11.247C16.9078 11.1574 16.405 11.1101 15.901 11.1057C15.3101 11.1051 14.8099 11.1405 14.3979 11.2102C14.2373 11.2374 14.1253 11.2761 14.0474 11.3203C14.4086 11.4339 14.8478 11.578 15.3648 11.7526C16.2184 12.0298 16.8859 12.3333 17.3531 12.6689C17.6377 12.8732 17.8663 13.1054 18.034 13.3662C18.0528 13.3792 18.0713 13.3922 18.0895 13.4053C18.5641 13.746 18.8835 14.1648 19.0231 14.6639C19.1598 15.1528 19.1408 15.7454 18.99 16.4278L18.9897 16.429C18.7167 17.6347 18.0759 18.5695 17.0703 19.2177C16.7655 19.4139 16.4161 19.5784 16.0242 19.7125L15.908 20.3031L11.6975 21.0587L11.779 20.5648L9.46633 20.9803L9.55484 20.4579L7.80904 20.7714L8.12513 19.8462L7.07275 20.0351L7.4896 18.8148C7.42669 18.7912 7.36606 18.7671 7.30777 18.7424L7.12153 18.6633L7.86053 15.1884L8.14006 15.3186C8.63574 15.5494 9.23509 15.7296 9.94178 15.8558C10.6529 15.9829 11.2911 16.0456 11.8574 16.0456C12.5515 16.046 13.0418 16.0138 13.3409 15.9544C13.4702 15.9287 13.5558 15.8842 13.6127 15.8323C13.6288 15.8175 13.6439 15.8011 13.6578 15.7827C13.2175 15.6317 12.6721 15.4382 12.0217 15.2023L12.0205 15.2018L12.0192 15.2014C11.0128 14.8241 10.2599 14.3747 9.79151 13.839C9.72945 13.768 9.67353 13.6932 9.62359 13.6148C9.4027 13.4535 9.21285 13.283 9.05527 13.1027C8.5522 12.5273 8.45311 11.7039 8.6712 10.7019C8.91084 9.51178 9.52769 8.5877 10.5179 7.94604L10.5186 7.94557C10.617 7.88226 10.7181 7.82323 10.8215 7.76858L10.8425 7.39146L14.9105 6.06374L14.8952 6.56444L17.1264 5.83585L17.1105 6.40338L19.0291 5.80859L18.7268 6.86685L19.7654 6.54488ZM18.3662 7.23559L18.6685 6.17733L16.8556 6.73936L16.8713 6.17733L14.6393 6.90619L14.6545 6.40544L11.0783 7.5727L11.0587 7.92364C10.9184 7.99146 10.7823 8.06776 10.6513 8.15199C9.71825 8.75671 9.13826 9.62339 8.91138 10.7522C8.70053 11.7197 8.81004 12.4493 9.23999 12.9412C9.28829 12.9964 9.34009 13.0508 9.39539 13.1046C9.51587 13.2215 9.65315 13.3349 9.80715 13.4445C9.85654 13.5274 9.91293 13.605 9.97631 13.6775C10.1036 13.8231 10.2554 13.9634 10.4318 14.0984C10.851 14.4194 11.4089 14.7105 12.1054 14.9716C12.7584 15.2085 13.3046 15.4022 13.7439 15.5528C13.8262 15.581 13.9048 15.6077 13.9797 15.6329C13.9777 15.6428 13.9754 15.6527 13.9728 15.6628C13.9561 15.7373 13.9309 15.8044 13.8971 15.864C13.7992 16.0369 13.6298 16.1472 13.3887 16.1951C13.0645 16.2595 12.554 16.2915 11.8574 16.291C11.2735 16.291 10.6205 16.2265 9.89854 16.0974C9.28005 15.9869 8.73584 15.835 8.26598 15.6415C8.18735 15.6092 8.11089 15.5757 8.03646 15.541L7.40368 18.5164C7.4759 18.5471 7.55242 18.5769 7.63324 18.6061C7.68714 18.6255 7.74297 18.6445 7.80072 18.6633L7.4398 19.7199L8.49216 19.5309L8.17607 20.4561L9.85521 20.1547L9.76663 20.6769L12.0777 20.2618L11.9962 20.7558L15.6996 20.0912L15.8112 19.5243C16.2429 19.3877 16.6184 19.2167 16.9373 19.0114C17.8866 18.3995 18.491 17.5206 18.7503 16.3748C18.8965 15.7138 18.9086 15.1655 18.7867 14.73C18.6985 14.4143 18.527 14.1304 18.2723 13.8782C18.1756 13.7824 18.0669 13.6912 17.9463 13.6046C17.9162 13.583 17.8852 13.5615 17.8533 13.5401C17.7297 13.3367 17.5635 13.1497 17.3545 12.9789C17.3084 12.9412 17.2602 12.9044 17.21 12.8683C16.772 12.5537 16.1312 12.2594 15.2875 11.9856C14.7255 11.7958 14.2569 11.6425 13.8818 11.5256C13.7989 11.4997 13.7204 11.4757 13.6466 11.4533C13.667 11.3698 13.7065 11.2963 13.7647 11.2327C13.8836 11.1031 14.081 11.0149 14.3569 10.9682C14.7867 10.8955 15.3018 10.8595 15.9021 10.8603C16.4204 10.8648 16.9374 10.9133 17.4474 11.0055C17.9086 11.0851 18.3231 11.2031 18.6907 11.3592C18.7691 11.3926 18.8454 11.4276 18.9195 11.4644L19.5279 8.53761C19.4343 8.50417 19.3331 8.47166 19.224 8.44C19.1488 8.41815 19.0699 8.39668 18.9872 8.37568L19.4048 6.91361L18.3662 7.23559Z" fill="#0C111D"/>
</g>
<defs>
<clipPath id="clip0_1183_135">
<rect width="28" height="28" fill="white"/>
</clipPath>
</defs>
</svg>
