<svg width="29" height="29" viewBox="0 0 29 29" fill="none" xmlns="http://www.w3.org/2000/svg">
<g clip-path="url(#clip0_1620_440)">
<path fill-rule="evenodd" clip-rule="evenodd" d="M6.87374 0.787109H20.8141C23.3795 0.787109 25.5743 2.37427 26.4699 4.62022C27.4069 5.6207 27.9806 6.96556 27.9806 8.44441V22.3848C27.9806 25.4753 25.4753 27.9806 22.3848 27.9806H8.44441C6.96556 27.9806 5.6207 27.4069 4.62022 26.4699C2.37427 25.5743 0.787109 23.3795 0.787109 20.8141V6.87374C0.787109 3.51218 3.51218 0.787109 6.87374 0.787109ZM3.78054 25.478C2.63634 24.7176 1.78801 23.5474 1.44507 22.1768C1.78806 23.5469 2.63611 24.7167 3.77986 25.4769L3.78054 25.478ZM19.1687 6.67773L17.3557 7.23976L17.3714 6.67773L15.1395 7.4066L15.1546 6.90584L11.5784 8.0731L11.5588 8.42404C11.4185 8.49186 11.2825 8.56816 11.1515 8.6524C10.2184 9.25712 9.63838 10.1238 9.41151 11.2526C9.20065 12.2201 9.31016 12.9497 9.74012 13.4416C9.89378 13.6173 10.0832 13.7854 10.3082 13.9457C10.3574 14.0279 10.4135 14.105 10.4765 14.177C10.9064 14.6688 11.6161 15.1002 12.6056 15.4711C13.3811 15.7524 14.0059 15.9728 14.4799 16.1324C14.4779 16.1426 14.4756 16.1529 14.473 16.1632C14.4078 16.4537 14.2131 16.6312 13.8889 16.6955C13.5646 16.76 13.0542 16.7919 12.3575 16.7914C11.7736 16.7914 11.1207 16.7269 10.3987 16.5978C9.67665 16.4688 9.05599 16.2833 8.53659 16.0414L7.90381 19.0168C8.0242 19.0679 8.15654 19.1169 8.30084 19.1637L7.93992 20.2203L8.99193 20.0314L8.67622 20.9556L10.3554 20.6541L10.2668 21.1764L12.5779 20.7612L12.4964 21.2553L16.1997 20.5907L16.3114 20.0237C16.7431 19.8872 17.1185 19.7162 17.4375 19.5109C18.3868 18.899 18.9911 18.0201 19.2505 16.8743C19.3966 16.2133 19.4088 15.665 19.2869 15.2294C19.165 14.794 18.8849 14.4188 18.4464 14.1041C18.4161 14.0823 18.3847 14.0606 18.3524 14.0389C18.2018 13.7913 17.9876 13.5679 17.7101 13.3687C17.2721 13.0541 16.6313 12.7598 15.7877 12.486C15.1011 12.2541 14.554 12.0767 14.1465 11.9537C14.2084 11.6994 14.4453 11.5374 14.8571 11.4677C15.2869 11.395 15.802 11.359 16.4023 11.3598C16.9206 11.3643 17.4376 11.4128 17.9476 11.505C18.5072 11.6017 18.9979 11.7546 19.4197 11.9639L20.028 9.03709C19.8699 8.98062 19.6897 8.92664 19.4873 8.87515L19.905 7.41309L18.8666 7.73499L19.1687 6.67773Z" fill="#0E0E0E"/>
<path fill-rule="evenodd" clip-rule="evenodd" d="M20.2654 7.04488L19.7914 8.70403C19.9051 8.737 20.0115 8.77115 20.1105 8.80654L20.3116 8.8784L19.5951 12.3255L19.3105 12.1843C18.9137 11.9874 18.4465 11.8407 17.9056 11.7474L17.9047 11.7472L17.9037 11.747C17.4078 11.6574 16.905 11.6101 16.401 11.6057C15.8101 11.6051 15.3099 11.6405 14.8979 11.7102C14.7373 11.7374 14.6253 11.7761 14.5474 11.8203C14.9086 11.9339 15.3478 12.078 15.8648 12.2526C16.7184 12.5298 17.3859 12.8333 17.8531 13.1689C18.1377 13.3732 18.3663 13.6054 18.534 13.8662C18.5528 13.8792 18.5713 13.8922 18.5895 13.9053C19.0641 14.246 19.3835 14.6648 19.5231 15.1639C19.6598 15.6528 19.6408 16.2454 19.49 16.9278L19.4897 16.929C19.2167 18.1347 18.5759 19.0695 17.5703 19.7177C17.2655 19.9139 16.9161 20.0784 16.5242 20.2125L16.408 20.8031L12.1975 21.5587L12.279 21.0648L9.96633 21.4803L10.0548 20.9579L8.30904 21.2714L8.62513 20.3462L7.57275 20.5351L7.9896 19.3148C7.92669 19.2912 7.86606 19.2671 7.80777 19.2424L7.62153 19.1633L8.36053 15.6884L8.64006 15.8186C9.13574 16.0494 9.73509 16.2296 10.4418 16.3558C11.1529 16.4829 11.7911 16.5456 12.3574 16.5456C13.0515 16.546 13.5418 16.5138 13.8409 16.4544C13.9702 16.4287 14.0558 16.3842 14.1127 16.3323C14.1288 16.3175 14.1439 16.3011 14.1578 16.2827C13.7175 16.1317 13.1721 15.9382 12.5217 15.7023L12.5205 15.7018L12.5192 15.7014C11.5128 15.3241 10.7599 14.8747 10.2915 14.339C10.2294 14.268 10.1735 14.1932 10.1236 14.1148C9.9027 13.9535 9.71285 13.783 9.55527 13.6027C9.0522 13.0273 8.95311 12.2039 9.1712 11.2019C9.41084 10.0118 10.0277 9.0877 11.0179 8.44604L11.0186 8.44557C11.117 8.38226 11.2181 8.32323 11.3215 8.26858L11.3425 7.89146L15.4105 6.56374L15.3952 7.06444L17.6264 6.33585L17.6105 6.90338L19.5291 6.30859L19.2268 7.36685L20.2654 7.04488ZM18.8662 7.73559L19.1685 6.67733L17.3556 7.23936L17.3713 6.67733L15.1393 7.40619L15.1545 6.90544L11.5783 8.0727L11.5587 8.42364C11.4184 8.49146 11.2823 8.56776 11.1513 8.65199C10.2182 9.25671 9.63826 10.1234 9.41138 11.2522C9.20053 12.2197 9.31004 12.9493 9.73999 13.4412C9.78829 13.4964 9.84009 13.5508 9.89539 13.6046C10.0159 13.7215 10.1531 13.8349 10.3071 13.9445C10.3565 14.0274 10.4129 14.105 10.4763 14.1775C10.6036 14.3231 10.7554 14.4634 10.9318 14.5984C11.351 14.9194 11.9089 15.2105 12.6054 15.4716C13.2584 15.7085 13.8046 15.9022 14.2439 16.0528C14.3262 16.081 14.4048 16.1077 14.4797 16.1329C14.4777 16.1428 14.4754 16.1527 14.4728 16.1628C14.4561 16.2373 14.4309 16.3044 14.3971 16.364C14.2992 16.5369 14.1298 16.6472 13.8887 16.6951C13.5645 16.7595 13.054 16.7915 12.3574 16.791C11.7735 16.791 11.1205 16.7265 10.3985 16.5974C9.78005 16.4869 9.23584 16.335 8.76598 16.1415C8.68735 16.1092 8.61089 16.0757 8.53646 16.041L7.90368 19.0164C7.9759 19.0471 8.05242 19.0769 8.13324 19.1061C8.18714 19.1255 8.24297 19.1445 8.30072 19.1633L7.9398 20.2199L8.99216 20.0309L8.67607 20.9561L10.3552 20.6547L10.2666 21.1769L12.5777 20.7618L12.4962 21.2558L16.1996 20.5912L16.3112 20.0243C16.7429 19.8877 17.1184 19.7167 17.4373 19.5114C18.3866 18.8995 18.991 18.0206 19.2503 16.8748C19.3965 16.2138 19.4086 15.6655 19.2867 15.23C19.1985 14.9143 19.027 14.6304 18.7723 14.3782C18.6756 14.2824 18.5669 14.1912 18.4463 14.1046C18.4162 14.083 18.3852 14.0615 18.3533 14.0401C18.2297 13.8367 18.0635 13.6497 17.8545 13.4789C17.8084 13.4412 17.7602 13.4044 17.71 13.3683C17.272 13.0537 16.6312 12.7594 15.7875 12.4856C15.2255 12.2958 14.7569 12.1425 14.3818 12.0256C14.2989 11.9997 14.2204 11.9757 14.1466 11.9533C14.167 11.8698 14.2065 11.7963 14.2647 11.7327C14.3836 11.6031 14.581 11.5149 14.8569 11.4682C15.2867 11.3955 15.8018 11.3595 16.4021 11.3603C16.9204 11.3648 17.4374 11.4133 17.9474 11.5055C18.4086 11.5851 18.8231 11.7031 19.1907 11.8592C19.2691 11.8926 19.3454 11.9276 19.4195 11.9644L20.0279 9.03761C19.9343 9.00417 19.8331 8.97166 19.724 8.94C19.6488 8.91815 19.5699 8.89668 19.4872 8.87568L19.9048 7.41361L18.8662 7.73559Z" fill="#0E0E0E"/>
</g>
<defs>
<clipPath id="clip0_1620_440">
<rect width="28" height="28" fill="white" transform="translate(0.5 0.5)"/>
</clipPath>
</defs>
</svg>
