<svg width="28" height="28" viewBox="0 0 28 28" fill="none" xmlns="http://www.w3.org/2000/svg">
<path d="M3.19916 9.59741L2.3335 10.7641H6.586L6.887 4.62975L3.19916 9.59741ZM20.586 4.06508L14.5275 3.46308L20.9255 10.4257L20.586 4.06508ZM7.2265 12.1944L6.69916 11.1782H2.37083L12.984 23.5216L7.2265 12.1944ZM7.30116 10.7641H20.6992L16.8608 6.58741L14.0002 3.46191L7.30116 10.7641ZM21.3012 11.1782L15.0163 23.5601L25.6295 11.2156H21.3012V11.1782ZM21.5275 5.19325L21.1133 4.59241L21.1507 5.42075L21.4143 10.7641H25.6668L21.5275 5.19325ZM7.26383 6.35991L7.0375 10.3872L13.4728 3.46308L7.41433 4.06508L7.26383 6.35991ZM20.8497 11.1782H7.15066L9.183 15.1297L14.0002 24.5377L20.8497 11.1782Z" fill="#0E0E0E"/>
</svg>
