<svg width="28" height="28" viewBox="0 0 28 28" fill="none" xmlns="http://www.w3.org/2000/svg">
<g clip-path="url(#clip0_733_331)">
<path fill-rule="evenodd" clip-rule="evenodd" d="M6.5625 0H21.4375C25.0619 0 28 2.93813 28 6.5625V21.4375C28 25.0619 25.0619 28 21.4375 28H6.5625C2.93813 28 0 25.0619 0 21.4375V6.5625C0 2.93813 2.93813 0 6.5625 0ZM9.19327 16.6611H13.5333L14.49 19.4378C14.5133 19.5195 14.595 19.5778 14.6766 19.5661H17.115C17.2316 19.5661 17.2666 19.5078 17.2316 19.3795L12.9733 7.36281C12.9616 7.30452 12.915 7.26952 12.8216 7.26952H9.79997C9.74157 7.28111 9.69497 7.33952 9.70657 7.39781C9.70657 7.65452 9.68327 7.91111 9.63657 8.15611C9.60373 8.25477 9.57666 8.34766 9.55128 8.43473C9.54065 8.47122 9.53031 8.50668 9.51997 8.54111L5.76327 19.3561C5.72827 19.4961 5.76327 19.5661 5.89157 19.5661H8.08497C8.18997 19.5778 8.28327 19.5078 8.30657 19.4028L9.19327 16.6611ZM12.8333 14.2928H9.86997C10.0614 13.755 10.2326 13.2102 10.3833 12.6595C10.4989 12.2981 10.6101 11.9367 10.7196 11.5809C10.7868 11.3623 10.8534 11.1459 10.92 10.9328C11.0833 10.4312 11.2116 9.92952 11.3166 9.42781H11.34C11.3853 9.58337 11.4307 9.74616 11.478 9.91613C11.5159 10.0521 11.5551 10.1927 11.5966 10.3378C11.69 10.6761 11.795 11.0145 11.9116 11.3761C11.9699 11.557 12.0253 11.7349 12.0808 11.9128C12.1362 12.0907 12.1916 12.2687 12.25 12.4495C12.355 12.7995 12.46 13.1378 12.565 13.4528C12.67 13.7561 12.7633 14.0478 12.8333 14.2928ZM18.795 8.90281C19.075 9.17111 19.4483 9.32281 19.8333 9.31111C20.23 9.33452 20.6267 9.18281 20.895 8.90281C21.175 8.61111 21.315 8.22611 21.3033 7.82952C21.315 7.44646 21.1769 7.07394 20.9183 6.79111C20.6617 6.52281 20.3117 6.38281 19.8567 6.38281C19.4717 6.38281 19.0983 6.5227 18.8183 6.79111C18.5383 7.05952 18.3867 7.43281 18.3983 7.82952C18.3867 8.22611 18.5267 8.61111 18.795 8.90281ZM18.5267 10.4545V19.4378C18.5267 19.5545 18.585 19.6245 18.7017 19.6245H20.9883C21.0933 19.6245 21.14 19.5661 21.14 19.4378V10.4545C21.14 10.3495 21.0933 10.2911 20.9883 10.2911H18.6783C18.5733 10.2911 18.5267 10.3378 18.5267 10.4545Z" fill="#141517"/>
</g>
<defs>
<clipPath id="clip0_733_331">
<rect width="28" height="28" fill="white"/>
</clipPath>
</defs>
</svg>
