<svg width="24" height="24" viewBox="0 0 24 24" fill="none" xmlns="http://www.w3.org/2000/svg">
<path d="M12 16.01L12.01 15.999" stroke="black" stroke-width="1.5" stroke-linecap="round" stroke-linejoin="round"/>
<path d="M7 19.4V4.6C7 4.44087 7.06321 4.28826 7.17574 4.17574C7.28826 4.06321 7.44087 4 7.6 4H16.4C16.4788 4 16.5568 4.01552 16.6296 4.04567C16.7024 4.07583 16.7685 4.12002 16.8243 4.17574C16.88 4.23145 16.9242 4.29759 16.9543 4.37039C16.9845 4.44319 17 4.52121 17 4.6V19.4C17 19.4788 16.9845 19.5568 16.9543 19.6296C16.9242 19.7024 16.88 19.7685 16.8243 19.8243C16.7685 19.88 16.7024 19.9242 16.6296 19.9543C16.5568 19.9845 16.4788 20 16.4 20H7.6C7.44087 20 7.28826 19.9368 7.17574 19.8243C7.06321 19.7117 7 19.5591 7 19.4Z" stroke="black" stroke-width="1.5"/>
</svg>
