<svg width="28" height="28" viewBox="0 0 28 28" fill="none" xmlns="http://www.w3.org/2000/svg">
<path d="M14 7C10.796 7 8.804 8.55167 8 11.6667C9.2 10.115 10.604 9.53167 12.2 9.91667C13.112 10.1383 13.772 10.78 14.492 11.4917C15.668 12.6583 17 14 20 14C23.204 14 25.196 12.4483 26 9.33333C24.8 10.885 23.396 11.4683 21.8 11.0833C20.888 10.8617 20.24 10.22 19.508 9.50833C18.332 8.34167 17 7 14 7ZM8 14C4.796 14 2.804 15.5517 2 18.6667C3.2 17.115 4.604 16.5317 6.2 16.9167C7.112 17.1383 7.76 17.78 8.492 18.4917C9.668 19.6583 11 21 14 21C17.204 21 19.196 19.4483 20 16.3333C18.8 17.885 17.396 18.4683 15.8 18.0833C14.888 17.8617 14.24 17.22 13.508 16.5083C12.332 15.3417 11 14 8 14Z" fill="#000000"/>
</svg>
