<svg width="35" height="28" viewBox="0 0 35 28" fill="none" xmlns="http://www.w3.org/2000/svg">
<g clip-path="url(#clip0_1624_107)">
<path d="M5.38941 19.2705L3.56026 19.9387L3.46191 25.3804L9.79401 23.0672C7.6223 22.3378 6.03628 21.0542 5.38941 19.2705Z" fill="#0E0E0E"/>
<path d="M6.34671 13.5146L0 15.8332L3.56023 19.9384L5.38939 19.2702C4.74443 17.4917 5.14217 15.4813 6.34671 13.5146Z" fill="#0E0E0E"/>
<path d="M17.0271 5.66306C8.94521 8.61549 3.73489 14.7077 5.38949 19.2706L34.6566 8.57888C33.002 4.01597 25.109 2.71049 17.0271 5.66278" fill="#0E0E0E"/>
<path d="M23.0188 22.1867C31.1005 19.2343 36.3208 13.1689 34.6563 8.5791L5.38916 19.2707C7.05359 23.8605 14.9369 25.139 23.0188 22.1867Z" fill="#0E0E0E"/>
<path d="M34.6563 8.5791L5.38916 19.271C5.96227 20.8513 8.14764 21.6298 11.2141 21.6298C14.2036 21.6298 18.0304 20.8905 22.0201 19.433C30.102 16.4806 35.7881 11.7004 34.6563 8.57937" fill="#0E0E0E"/>
<path d="M28.8319 6.21973C25.8423 6.21973 22.0155 6.9592 18.0258 8.41657C9.94407 11.369 4.25788 16.1492 5.38963 19.2703L34.6567 8.57856C34.0838 6.99826 31.8983 6.21973 28.8319 6.21973Z" fill="#0E0E0E"/>
<path d="M27.2152 25.6685H27.2149C26.3539 25.6685 25.0835 24.8907 23.4391 23.3567C21.4936 21.5419 19.2651 18.8838 17.1641 15.8719C15.063 12.8602 13.3366 9.84934 12.3028 7.39381C11.1764 4.71769 11.0157 3.07225 11.8254 2.50323C12.003 2.37853 12.217 2.31543 12.4614 2.31543C13.12 2.31543 14.4032 2.80577 16.7761 5.14179L16.828 5.19287L16.8209 5.2654C16.8047 5.43305 16.7898 5.60083 16.7764 5.76872L16.75 6.09871L16.5171 5.86419C13.9605 3.28846 12.8351 3.01038 12.4698 3.01038C12.3656 3.01038 12.2827 3.03155 12.2233 3.07334C11.872 3.32015 11.8495 4.52866 12.9415 7.12282C13.9568 9.53465 15.6581 12.5002 17.7321 15.4727C19.8061 18.4456 22.0003 21.0645 23.9112 22.8469C25.9714 24.7688 26.8999 24.9763 27.2034 24.9763C27.3082 24.9763 27.3934 24.9539 27.4565 24.9094C27.8271 24.6492 27.8275 23.3545 26.6097 20.5623L26.5537 20.4342L26.6762 20.3672C26.7986 20.3002 26.917 20.2342 27.0279 20.1711L27.1746 20.0878L27.2421 20.2425C28.1056 22.221 28.9128 24.7355 27.8544 25.4796C27.676 25.6049 27.461 25.6685 27.2152 25.6685ZM27.2149 25.3633H27.2152L27.215 25.5158L27.2149 25.3633Z" fill="#0E0E0E"/>
<path d="M23.2154 22.1032L23.2031 22.2552C22.9987 24.7834 22.4607 27.823 21.058 27.9459C21.0298 27.9485 21.0008 27.9497 20.9713 27.9497C20.0184 27.9497 19.1168 26.5844 18.2919 23.8918C17.5111 21.3443 16.9055 17.924 16.5862 14.2607C16.2668 10.5982 16.2716 7.12416 16.5996 4.47877C16.9573 1.596 17.6378 0.0904195 18.6224 0.00409756C18.6516 0.00136585 18.6818 0 18.7116 0C19.4028 0 20.4447 0.782634 21.5112 4.42864L20.8149 4.56304C20.4588 3.3447 20.0706 2.35378 19.6853 1.6729C19.329 1.0431 18.9824 0.696312 18.7097 0.696312C18.7006 0.696312 18.6916 0.696631 18.6828 0.697268C18.2559 0.734829 17.6343 1.77015 17.2877 4.56468C16.9656 7.16281 16.9617 10.5847 17.2768 14.2001C17.5921 17.8161 18.1879 21.1853 18.9546 23.6873C19.2978 24.8077 19.6744 25.7312 20.0436 26.3578C20.3839 26.9356 20.7134 27.2538 20.971 27.2538C20.9799 27.2538 20.9888 27.2535 20.9976 27.2527C21.406 27.217 22.1757 26.1396 22.4995 22.3488L23.2154 22.1032Z" fill="#0E0E0E"/>
</g>
<defs>
<clipPath id="clip0_1624_107">
<rect width="34.9659" height="28" fill="white"/>
</clipPath>
</defs>
</svg>
